<svg width="28" height="29" viewBox="0 0 28 29" fill="none" xmlns="http://www.w3.org/2000/svg">
<rect y="0.858154" width="28" height="28" rx="3" fill="#C0C0C0"/>
<path d="M21.3509 6.85834H6.7024C6.60958 6.85625 6.51727 6.8718 6.43106 6.90403C6.34485 6.93627 6.26655 6.98452 6.20089 7.04587C6.13524 7.10722 6.0836 7.18038 6.0491 7.26093C6.0146 7.34148 5.99796 7.42774 6.0002 7.51447V21.2958C6.0002 21.5769 6.30101 21.858 6.7024 21.858H21.4514C21.5443 21.8601 21.6366 21.8445 21.7228 21.8123C21.809 21.78 21.8873 21.7318 21.953 21.6704C22.0186 21.6091 22.0703 21.5359 22.1047 21.4554C22.1392 21.3748 22.1559 21.2886 22.1537 21.2018V7.51447C22.054 7.13942 21.7523 6.85834 21.3509 6.85834ZM10.7154 19.6085H8.40854V12.4825H10.816V19.6068H10.7163L10.7154 19.6085ZM9.6118 11.5444C8.80902 11.5444 8.20739 10.8883 8.20739 10.2321C8.20739 9.48203 8.80902 8.91987 9.6118 8.91987C10.4146 8.91987 11.0162 9.48203 11.0162 10.2321C10.9165 10.8883 10.314 11.5444 9.6118 11.5444ZM19.6456 19.6068H17.2373V16.1382C17.2373 15.2949 17.2373 14.2638 16.0331 14.2638C14.829 14.2638 14.6287 15.201 14.6287 16.1382V19.7008H12.2204V12.4833H14.5281V13.4205C14.829 12.8584 15.6317 12.2954 16.7353 12.2954C19.1437 12.2954 19.5442 13.7956 19.5442 15.6708V19.6076H19.6456V19.6068Z" fill="#131211"/>
</svg>
