<svg width="28" height="28" viewBox="0 0 28 28" fill="none" xmlns="http://www.w3.org/2000/svg">
<rect width="28" height="28" rx="3" fill="#C0C0C0"/>
<path d="M21.3509 6.00019H6.7024C6.60958 5.9981 6.51727 6.01364 6.43106 6.04588C6.34485 6.07811 6.26655 6.12636 6.20089 6.18771C6.13524 6.24906 6.0836 6.32223 6.0491 6.40278C6.0146 6.48333 5.99796 6.56958 6.0002 6.65632V20.4377C6.0002 20.7187 6.30101 20.9998 6.7024 20.9998H21.4514C21.5443 21.0019 21.6366 20.9864 21.7228 20.9541C21.809 20.9219 21.8873 20.8736 21.953 20.8123C22.0186 20.7509 22.0703 20.6778 22.1047 20.5972C22.1392 20.5167 22.1559 20.4304 22.1537 20.3437V6.65632C22.054 6.28126 21.7523 6.00019 21.3509 6.00019ZM10.7154 18.7503H8.40854V11.6243H10.816V18.7486H10.7163L10.7154 18.7503ZM9.6118 10.6862C8.80902 10.6862 8.20739 10.0301 8.20739 9.37398C8.20739 8.62387 8.80902 8.06171 9.6118 8.06171C10.4146 8.06171 11.0162 8.62387 11.0162 9.37398C10.9165 10.0301 10.314 10.6862 9.6118 10.6862ZM19.6456 18.7486H17.2373V15.28C17.2373 14.4368 17.2373 13.4056 16.0331 13.4056C14.829 13.4056 14.6287 14.3428 14.6287 15.28V18.8426H12.2204V11.6252H14.5281V12.5624C14.829 12.0002 15.6317 11.4372 16.7353 11.4372C19.1437 11.4372 19.5442 12.9374 19.5442 14.8127V18.7495H19.6456V18.7486Z" fill="#131211"/>
</svg>
