<svg width="90" height="29" viewBox="0 0 90 29" fill="none" xmlns="http://www.w3.org/2000/svg">
<path d="M20.9122 20.1935H22.6342L24.7762 26.0455L26.8202 20.1935H28.5422L25.7142 28.1735H23.8382L20.9122 20.1935ZM30.3134 28.1735V20.1935H31.9374V28.1735H30.3134ZM35.4007 23.9595H37.4447C37.8787 23.9595 38.3127 23.7775 38.3127 22.6855C38.3127 21.6915 37.6547 21.6215 37.4447 21.6215H35.4007V23.9595ZM33.7767 28.1735V20.1935H37.5567C38.6767 20.1935 39.9367 20.6275 39.9367 22.6015C39.9367 23.9595 39.5587 24.9115 38.6347 25.0935L40.3147 28.1735H38.5507L37.0667 25.2475C36.8007 25.2195 35.4147 25.0935 35.4007 25.0795V28.1735H33.7767ZM41.5589 21.7195V20.1935H47.9989V21.7195H45.5909V28.1735H43.9669V21.7195H41.5589ZM49.7567 24.5335V20.1935H51.3947V24.5335C51.3947 26.3955 51.9687 26.7175 53.2007 26.7175C54.3067 26.7175 54.9367 26.3815 54.9367 24.5335V20.1935H56.5747V24.5335C56.5747 27.7955 54.8947 28.2435 53.2007 28.2435C51.2967 28.2435 49.7427 27.8795 49.7567 24.5335ZM58.3732 22.9935V22.2655C58.3732 21.0895 58.8492 20.1515 60.4452 20.1515C61.1732 20.1515 63.2732 20.2635 64.3232 20.4595V21.6495C64.3232 21.6495 62.1392 21.5655 60.6972 21.5655C60.1372 21.5655 59.9972 21.9155 59.9972 22.2935V22.8815C59.9972 23.4975 60.2632 23.5115 60.6972 23.5115H62.7832C64.1972 23.5115 64.7012 24.4215 64.7012 25.5415V26.3255C64.7012 27.9355 63.7352 28.3135 62.7832 28.3135C62.1112 28.3135 59.2132 28.2295 58.6812 27.9915V26.8295C58.6812 26.8295 61.0472 26.8855 62.4332 26.8855C62.9232 26.8855 63.0772 26.2975 63.0772 26.2975V25.5975C63.0772 25.1915 62.9092 24.9955 62.4332 24.9955H60.4032C58.9332 24.9955 58.3732 24.3375 58.3732 22.9935ZM66.7025 26.6755V20.1935H68.3265V26.0735C68.3125 26.6475 68.6065 26.6475 69.0545 26.6475H72.3445V28.1735H68.2005C67.3325 28.1735 66.7025 27.6835 66.7025 26.6755ZM76.4745 24.9815H78.3925L77.4825 22.2655L76.4745 24.9815ZM73.5905 28.1735L76.5585 20.1935H78.4205L81.1785 28.1735H79.4565L78.7985 26.3675H76.0125L75.3125 28.1735H73.5905ZM84.5747 23.3995H86.5907C87.2907 23.3995 87.4727 23.1335 87.4727 22.4615C87.4727 21.7335 86.9827 21.6075 86.5907 21.6075H84.5747V23.3995ZM84.5747 26.7315H86.5907C86.9967 26.7315 87.5007 26.6335 87.5007 25.7375C87.5007 25.1075 87.2907 24.6875 86.5907 24.6875C86.5907 24.6875 84.8967 24.7015 84.5747 24.6875V26.7315ZM82.9507 28.1735V20.1795H86.6887C88.4247 20.1795 89.0967 21.1175 89.0967 22.3215C89.0967 23.3995 88.6767 23.9035 88.0747 24.0995C88.6067 24.2535 89.1387 24.8135 89.1387 25.9055C89.1387 27.3475 88.4527 28.1735 86.6887 28.1735H82.9507Z" fill="#E3F2FA"/>
<g clip-path="url(#clip0_6_233)">
<path d="M33.626 5.24629C33.5475 5.05386 33.3709 4.93233 33.165 4.93233H31.1442C31.0363 4.93233 30.9382 4.97284 30.8499 5.03361L27.8091 7.38324L27.76 7.28196L24.1796 0.374856C24.1796 0.374856 24.1698 0.354601 24.16 0.344473V0.324217H24.1502L24.1207 0.293834C24.1207 0.293834 24.0815 0.253323 24.0619 0.233068C24.0423 0.212812 24.0325 0.202685 24.0227 0.202685C23.9932 0.182429 23.9736 0.172302 23.9442 0.162174C23.9148 0.152046 23.9049 0.141918 23.8951 0.141918C23.8559 0.131791 23.8167 0.121663 23.7774 0.121663L23.748 0.0203857V0.121663C23.748 0.121663 23.6597 0.121663 23.6205 0.131791H23.6107L15.7436 2.30925C15.5964 2.34976 15.4689 2.47129 15.4101 2.61308L7.61165 23.4053L5.11027 17.0755C5.0416 16.9033 4.89446 16.7818 4.7179 16.7615L0.539123 16.1944C0.539123 16.1944 0.499886 16.1944 0.470458 16.1944C0.303699 16.1944 0.14675 16.2754 0.058466 16.4273C-0.0494366 16.5893 -0.0494366 16.802 0.058466 16.9742L6.26777 27.6083C6.26777 27.6083 6.28739 27.6286 6.2972 27.6387L6.31682 27.6691C6.31682 27.6691 6.33644 27.6893 6.33644 27.6994C6.35606 27.7096 6.37567 27.7298 6.39529 27.74L6.43453 27.7703C6.43453 27.7703 6.47377 27.7906 6.5032 27.8007L6.54243 27.821C6.54243 27.821 6.62091 27.8412 6.66014 27.8412H8.6122C8.78877 27.8412 8.95553 27.74 9.034 27.588L20.7365 6.92749L25.2979 10.219C25.2979 10.219 25.3371 10.2393 25.3665 10.2494C25.3862 10.2494 25.4058 10.2595 25.4352 10.2696C25.4646 10.2696 25.4744 10.2798 25.4842 10.2798L28.5938 10.6039C28.7409 10.6039 28.8881 10.5633 28.996 10.4519L33.5181 5.79319C33.6554 5.64127 33.7045 5.42859 33.626 5.23616V5.24629ZM6.59148 26.1398L1.45139 17.3287L4.32552 17.7135L4.34514 17.7642L7.11137 24.7725L6.60129 26.1398H6.59148ZM8.34735 26.788H7.40565L8.10212 24.9346L16.2537 3.21062H16.3027L22.718 1.42814L22.6003 1.64082L8.36697 26.788H8.34735ZM25.4646 9.10495L21.2466 6.04638L23.7284 1.66108L23.8069 1.82312L27.0047 8.01116L25.5235 9.15559L25.4646 9.11508V9.10495ZM28.4663 9.57083L26.8477 9.39866L31.311 5.9451H31.978L28.4663 9.5607V9.57083Z" fill="#E3F2FA"/>
</g>
<defs>
<clipPath id="clip0_6_233">
<rect width="33.6656" height="27.8107" fill="white"/>
</clipPath>
</defs>
</svg>
