<svg width="78" height="31" viewBox="0 0 78 31" fill="none" xmlns="http://www.w3.org/2000/svg">
<path d="M72.4392 7.34758C70.0108 7.34758 67.853 8.40477 67.853 8.40477L68.8101 10.8399C68.8101 10.8399 70.6001 9.97887 72.2929 9.97887C73.3225 9.97887 74.7952 10.4711 74.7952 11.9958V12.6595C74.7952 12.6595 73.6917 11.8231 71.5572 11.8231C69.0303 11.8231 66.9956 13.4466 66.9956 15.6843C66.9956 18.1688 69.007 19.5949 71.1894 19.5949C73.8134 19.5949 75.0154 17.8247 75.0154 17.8247V19.3001H77.7378V11.6997C77.7378 9.04376 75.7756 7.34629 72.4392 7.34629V7.34758ZM72.096 17.1363C71.1881 17.1363 69.9862 16.8662 69.9862 15.6363C69.9862 14.4063 71.2373 13.9881 72.1452 13.9881C73.7396 13.9881 74.7939 14.5778 74.7939 14.5778V15.783C74.7939 15.783 73.8613 17.1363 72.096 17.1363ZM61.9172 19.3014H64.8611V0.707031H61.9172V19.3014ZM53.9466 7.34758C51.5181 7.34758 49.3604 8.40477 49.3604 8.40477L50.3175 10.8399C50.3175 10.8399 52.1074 9.97887 53.8002 9.97887C54.8299 9.97887 56.3025 10.4711 56.3025 11.9958V12.6595C56.3025 12.6595 55.199 11.8231 53.0646 11.8231C50.5377 11.8231 48.5029 13.4466 48.5029 15.6843C48.5029 18.1688 50.5144 19.5949 52.6968 19.5949C55.3208 19.5949 56.5227 17.8247 56.5227 17.8247V19.3001H59.2452V11.6997C59.2452 9.04376 57.283 7.34629 53.9466 7.34629V7.34758ZM53.6034 17.1363C52.6955 17.1363 51.4935 16.8662 51.4935 15.6363C51.4935 14.4063 52.7447 13.9881 53.6526 13.9881C55.247 13.9881 56.3012 14.5778 56.3012 14.5778V15.783C56.3012 15.783 55.3687 17.1363 53.6034 17.1363ZM42.935 16.8415C40.9481 16.8415 39.6724 15.2921 39.6724 13.4725C39.6724 11.653 40.9481 10.1035 42.935 10.1035C44.7016 10.1035 45.6574 11.3335 45.6574 11.3335L47.6935 9.51391C47.6935 9.51391 46.0499 7.34888 42.935 7.34888C39.4522 7.34888 36.6805 10.0295 36.6805 13.4725C36.6805 16.9155 39.4522 19.5962 42.935 19.5962C46.0745 19.5962 47.7427 17.3831 47.7427 17.3831L45.8051 15.4155C45.8051 15.4155 44.9218 16.8415 42.935 16.8415ZM32.4129 14.7999C32.4129 16.2012 30.8923 16.7922 29.421 16.7922C26.8216 16.7922 25.349 14.2102 25.349 14.2102L23.142 16.0791C23.142 16.0791 25.1288 19.5962 29.421 19.5962C32.659 19.5962 35.4061 17.9234 35.4061 14.7999C35.4061 11.6763 33.2237 10.4958 30.5983 9.51132C28.2437 8.62556 26.8941 8.15801 26.8941 6.65794C26.8941 5.50205 28.0468 4.59162 29.5182 4.59162C31.6526 4.59162 33.0747 6.53456 33.0747 6.53456L35.1108 4.51759C35.1108 4.51759 33.0993 1.7876 29.5182 1.7876C25.937 1.7876 23.9009 4.22277 23.9009 6.65794C23.9009 9.85549 26.7465 11.2322 29.2721 12.1179C31.3081 12.8309 32.4116 13.3478 32.4116 14.7986L32.4129 14.7999Z" fill="#ECECEC"/>
<path d="M72.3226 24.7523H77.695V23.76H71.0002V29.5603H77.695V28.568H72.3226V26.6874H76.5721V25.8458H72.3226V24.751V24.7523ZM60.7294 25.3159C60.7294 24.9432 60.9353 24.7523 61.3382 24.7523H66.0151V23.76H60.8162C59.8824 23.76 59.407 24.1808 59.407 25.0133V28.3057C59.407 29.1395 59.8824 29.559 60.8162 29.559H66.0151V28.5667H61.3382C60.9341 28.5667 60.7294 28.3836 60.7294 28.0031V25.3133V25.3159ZM48.5664 25.3159C48.5664 24.9432 48.7723 24.7523 49.1673 24.7523H52.3884C52.7925 24.7523 52.9972 24.9432 52.9972 25.3159V26.7601H48.5664V25.3159ZM48.6454 23.7613C47.7115 23.7613 47.2453 24.1821 47.2453 25.0146V29.5616H48.5664V27.6017H52.9972V29.5616H54.3183V25.0146C54.3183 24.1808 53.8429 23.7613 52.9091 23.7613H48.6441H48.6454ZM35.2713 29.5616H36.5924V27.6095H40.7305C41.7744 27.6095 42.2899 27.1407 42.2899 26.1965V25.1731C42.2899 24.2289 41.7757 23.76 40.7305 23.76H35.27V29.5603L35.2713 29.5616ZM40.9843 26.0147C40.9843 26.4432 40.7629 26.6497 40.3121 26.6497H36.5924V24.7536H40.3121C40.7629 24.7536 40.9843 24.9601 40.9843 25.3886V26.016V26.0147ZM25.3787 25.8484C25.0381 25.8484 24.8567 25.7133 24.8567 25.4523V25.1354C24.8567 24.8808 25.0394 24.7549 25.3787 24.7549H30.0634V23.7626H24.9591C24.0252 23.7626 23.559 24.1509 23.559 24.9289V25.5237C23.559 26.3017 24.0252 26.69 24.9591 26.69H28.2669C28.7332 26.69 28.9715 26.9043 28.9715 27.3329V27.9355C28.9715 28.3563 28.7345 28.5706 28.2669 28.5706H23.5745V29.5629H28.6866C29.7473 29.5629 30.2771 29.0953 30.2771 28.1498V27.2615C30.2771 26.3173 29.7473 25.8484 28.6866 25.8484H25.3787Z" fill="#ECECEC"/>
<path d="M17.8434 2.0813V2.76315L17.846 3.4385L17.8485 4.10476L17.8498 4.88532C17.8524 5.92952 17.5442 6.91787 17.0054 7.74648C16.9277 7.86467 16.8461 7.98026 16.7593 8.09195C16.7153 8.1478 16.6725 8.20365 16.6259 8.2556C15.9446 9.06602 15.0134 9.67124 13.9306 9.94528L0.0579162 13.4623V12.7805L0.0553253 12.1051L0.0527344 11.4389V10.8336V10.6583C0.0527344 10.6583 0.0527344 10.6505 0.0527344 10.6479C0.0527344 10.5323 0.0566214 10.418 0.0643925 10.305C0.0669829 10.2869 0.0669827 10.2687 0.0682779 10.2505C0.0773442 10.1388 0.0890014 10.0271 0.103248 9.91671C0.105839 9.89723 0.109723 9.87774 0.113608 9.85826C0.12915 9.74657 0.149873 9.63747 0.174482 9.52838C0.175777 9.51409 0.180959 9.5011 0.183549 9.48682C0.236652 9.25694 0.304001 9.03355 0.385597 8.81666C0.390778 8.80367 0.394664 8.79068 0.399844 8.779C0.439995 8.67509 0.482736 8.57249 0.529363 8.47119C0.541019 8.44651 0.552676 8.42054 0.569513 8.39326C0.62132 8.31274 0.658881 8.22443 0.697737 8.13611C0.704213 8.12052 0.714575 8.10624 0.722346 8.09195C0.811713 7.9322 0.910146 7.77635 1.01635 7.6257C1.01635 7.6257 1.01894 7.6244 1.01894 7.6218C1.21192 7.35036 1.43081 7.0984 1.67301 6.86722C1.67819 6.86203 1.68337 6.85683 1.68985 6.85034C1.73129 6.81267 1.77274 6.77631 1.81418 6.73865C1.82325 6.72955 1.83232 6.72176 1.84138 6.71397C1.88153 6.6789 1.92428 6.64384 1.96443 6.61007C1.97608 6.60098 1.98774 6.59189 1.9981 6.58409C2.04084 6.55032 2.08099 6.51786 2.12373 6.48669C2.13539 6.47759 2.14705 6.4685 2.1587 6.46071C2.20144 6.42954 2.24548 6.39707 2.28822 6.3672C2.29988 6.35941 2.31154 6.35032 2.32319 6.34382C2.36723 6.31265 2.41385 6.28278 2.45918 6.25421C2.46955 6.24771 2.47991 6.23862 2.49156 6.23213C2.53949 6.20356 2.58611 6.17369 2.63404 6.14641C2.6431 6.14122 2.65346 6.13472 2.66382 6.12953C2.71304 6.10095 2.76355 6.07238 2.81407 6.04641C2.82184 6.04121 2.82961 6.03862 2.83867 6.03342C2.89178 6.00615 2.94617 5.97887 3.00057 5.9529C3.00575 5.9503 3.00964 5.9477 3.01482 5.9464C3.3166 5.80094 3.6378 5.68405 3.97196 5.59964L17.8447 2.0839L17.8434 2.0813Z" fill="url(#paint0_radial_240_2)"/>
<path d="M17.8485 4.10587C17.8485 4.10587 17.8485 4.11496 17.8485 4.12275L17.8511 4.88512C17.8511 4.88512 17.8511 4.89421 17.8511 4.89811C17.8511 4.94487 17.8511 4.99292 17.8485 5.03968C17.8472 5.06175 17.8459 5.08383 17.8459 5.10591C17.8459 5.11241 17.8459 5.1163 17.8459 5.1228C17.8433 5.15397 17.8433 5.18644 17.8407 5.2189C17.8394 5.24228 17.8381 5.26566 17.8368 5.28904C17.833 5.328 17.8304 5.36696 17.8252 5.40593C17.8252 5.41632 17.8252 5.428 17.8226 5.4384C17.8187 5.47216 17.8148 5.50593 17.8109 5.5397C17.8058 5.57866 17.8006 5.61762 17.7941 5.65529C17.7928 5.66698 17.7902 5.68126 17.7876 5.69425C17.7824 5.73581 17.776 5.77477 17.7669 5.81763C17.7669 5.82413 17.7656 5.82932 17.7643 5.83581C17.763 5.8462 17.7604 5.85919 17.7578 5.87218C17.7488 5.92543 17.7371 5.97868 17.7268 6.03193C17.7125 6.09297 17.6983 6.15531 17.6814 6.21505C17.6659 6.27609 17.649 6.33844 17.6309 6.39688C17.6115 6.46571 17.5882 6.53325 17.5662 6.60078V6.60208C17.5454 6.66182 17.5234 6.72027 17.5001 6.77871C17.4807 6.83066 17.4587 6.88132 17.4392 6.93197C17.4353 6.93976 17.4315 6.94885 17.4276 6.95664C17.4159 6.98652 17.403 7.01639 17.39 7.04496C17.3693 7.09042 17.3486 7.13457 17.3265 7.18003C17.324 7.18652 17.3214 7.19302 17.3162 7.19821C17.2903 7.25146 17.2618 7.30471 17.2346 7.35666C17.2216 7.38004 17.2087 7.40472 17.197 7.42679C17.1711 7.47485 17.1452 7.51901 17.1167 7.56446C17.1128 7.57615 17.1051 7.58654 17.0986 7.59563C17.096 7.60083 17.0921 7.60602 17.0895 7.61122C17.0688 7.64628 17.0481 7.67875 17.0261 7.71252C17.0196 7.72421 17.0118 7.7333 17.0066 7.74369C16.9976 7.75798 16.9885 7.77226 16.9794 7.78655C16.9496 7.83071 16.9186 7.87746 16.8875 7.92032C16.8473 7.97747 16.8046 8.03461 16.7618 8.09046C16.7411 8.11773 16.7191 8.14501 16.6958 8.17358C16.6751 8.20085 16.6518 8.22683 16.6297 8.2554H16.6284C16.5831 8.30995 16.5365 8.3632 16.4886 8.41515C16.4419 8.4671 16.394 8.51905 16.3435 8.5697C16.3021 8.60996 16.2619 8.64893 16.2192 8.68919C16.1712 8.73335 16.1233 8.7801 16.0715 8.82166C16.0469 8.84374 16.0223 8.86452 15.9951 8.8866C15.9873 8.89439 15.9783 8.90088 15.9692 8.90738C15.9394 8.93465 15.9083 8.95803 15.8785 8.98141C15.8656 8.9931 15.85 9.00479 15.8371 9.01388C15.7995 9.04375 15.7594 9.07362 15.7218 9.10219C15.705 9.11518 15.6868 9.12687 15.67 9.13856C15.6221 9.17492 15.5716 9.20869 15.5211 9.24116C15.4628 9.28142 15.4019 9.32038 15.3397 9.35675C15.2789 9.39441 15.2154 9.42948 15.1519 9.46455C15.1027 9.49182 15.0535 9.5178 15.003 9.54377C14.9797 9.55546 14.9564 9.56715 14.9318 9.57754C14.8761 9.60481 14.8204 9.63209 14.7634 9.65676H14.7621C14.696 9.68663 14.63 9.71391 14.5613 9.73988C14.5005 9.76456 14.437 9.78794 14.3735 9.81132C14.3632 9.81521 14.3502 9.81911 14.3399 9.823C14.2777 9.84508 14.2142 9.86586 14.1495 9.88405L14.1339 9.88794C14.0666 9.90742 13.9992 9.92691 13.9306 9.94379L3.0601 12.6985V12.3244L3.05751 11.9192C3.05104 9.52948 4.66743 7.44238 6.38743 7.0073L17.8459 4.10327L17.8485 4.10587Z" fill="url(#paint1_linear_240_2)"/>
<path opacity="0.6" d="M3.06269 12.7025L0.0604522 13.4636L0.0578613 13.0882L3.06009 12.3271L3.06139 12.7012L3.06269 12.7025Z" fill="url(#paint2_linear_240_2)"/>
<path opacity="0.75" d="M17.8485 4.10474C17.8485 4.10474 17.8485 4.11383 17.8485 4.12162V4.54502L6.65293 7.3828C4.94069 7.81659 3.06915 9.95045 3.06009 12.3259V11.922C3.05232 9.53095 4.67 7.44514 6.39 7.00876L17.8485 4.10474Z" fill="url(#paint3_linear_240_2)"/>
<path opacity="0.5" d="M17.8499 4.10456V4.88381C17.8499 4.88381 17.8499 4.89291 17.8512 4.8968C17.8512 4.9007 17.8512 4.90589 17.8512 4.90979C17.8512 4.95265 17.8499 4.99551 17.8486 5.03837C17.8473 5.06045 17.846 5.08252 17.846 5.1046C17.846 5.1111 17.846 5.11499 17.846 5.12149C17.8434 5.15266 17.8434 5.18513 17.8408 5.2176C17.8395 5.24097 17.8382 5.26435 17.8369 5.28773C17.8356 5.29422 17.8356 5.29942 17.8343 5.30591C17.8317 5.33838 17.8304 5.37215 17.8253 5.40332C17.8253 5.41371 17.8253 5.4254 17.8227 5.43579C17.8188 5.46955 17.8149 5.50332 17.811 5.53709C17.8058 5.57605 17.8007 5.61502 17.7942 5.65268C17.7929 5.66437 17.7903 5.67866 17.7877 5.69164C17.7825 5.7332 17.7761 5.77217 17.767 5.81502C17.767 5.82152 17.7657 5.82671 17.7644 5.83321C17.7631 5.8436 17.7605 5.85658 17.7579 5.86957C17.7489 5.92282 17.7372 5.97607 17.7268 6.02932C17.7126 6.09036 17.6983 6.1527 17.6815 6.21244C17.666 6.27349 17.6491 6.33583 17.631 6.39427C17.6142 6.45401 17.5947 6.51376 17.5753 6.5735C17.5714 6.58129 17.5688 6.59038 17.5662 6.59818V6.59948C17.5507 6.64623 17.5339 6.69169 17.5157 6.73844C17.5105 6.75143 17.5067 6.76442 17.5002 6.77611C17.4808 6.82806 17.4587 6.87871 17.4393 6.92936C17.4354 6.93715 17.4315 6.94624 17.4276 6.95404C17.416 6.98391 17.403 7.01378 17.3901 7.04235C17.3694 7.08781 17.3486 7.13197 17.3266 7.17742C17.324 7.18392 17.3214 7.19041 17.3163 7.19561C17.3085 7.21249 17.3007 7.22807 17.2929 7.24366C17.2865 7.25665 17.2774 7.27093 17.2722 7.28262C17.2606 7.306 17.2476 7.33068 17.2347 7.35405C17.2217 7.37743 17.2088 7.40211 17.1971 7.42419C17.1712 7.47224 17.1453 7.5164 17.1168 7.56186C17.1129 7.57355 17.1051 7.58393 17.0987 7.59303C17.0961 7.59822 17.0922 7.60341 17.0896 7.60861C17.0689 7.64368 17.0482 7.67615 17.0261 7.70991C17.0197 7.7216 17.0119 7.73069 17.0067 7.74108C16.9976 7.75537 16.9886 7.76966 16.9795 7.78394C16.9497 7.8281 16.9186 7.87486 16.8876 7.91772C16.8474 7.97486 16.8047 8.03201 16.7619 8.08785C16.7412 8.11513 16.7192 8.1424 16.6959 8.17097C16.6751 8.19825 16.6518 8.22422 16.6298 8.25279H16.6285C16.5858 8.30345 16.543 8.3528 16.499 8.40215C16.4951 8.40605 16.4925 8.40994 16.4886 8.41254C16.4485 8.4567 16.4083 8.50086 16.3669 8.54372C16.3578 8.55021 16.3513 8.5593 16.3436 8.56709C16.3021 8.60736 16.262 8.64632 16.2192 8.68658C16.1713 8.73074 16.1234 8.77749 16.0716 8.81905C16.047 8.84113 16.0224 8.86191 15.9952 8.88399C15.9874 8.89178 15.9783 8.89828 15.9693 8.90477C15.9524 8.92036 15.9356 8.93334 15.9188 8.94893C15.9058 8.95932 15.8916 8.97101 15.8786 8.9801C15.8657 8.99179 15.8501 9.00348 15.8372 9.01257C15.8126 9.03335 15.7866 9.05153 15.7607 9.07101C15.7478 9.0801 15.7348 9.09049 15.7206 9.10088C15.7038 9.11387 15.6856 9.12556 15.6688 9.13725C15.6494 9.15283 15.6286 9.16712 15.6092 9.18011C15.6066 9.184 15.6027 9.18401 15.5988 9.1866C15.5729 9.20479 15.547 9.22297 15.5198 9.23855C15.5095 9.24894 15.4965 9.25673 15.4836 9.26453C15.4357 9.2957 15.389 9.32557 15.3385 9.35414C15.3087 9.37232 15.2789 9.39051 15.2479 9.40739H15.2466C15.2155 9.42557 15.1844 9.44376 15.152 9.46194C15.1028 9.48921 15.0536 9.51519 15.0031 9.54116C14.9797 9.55285 14.9564 9.56454 14.9318 9.57493C14.8761 9.60221 14.8204 9.62948 14.7635 9.65415H14.7622C14.7155 9.67493 14.6689 9.69571 14.621 9.7152C14.6016 9.72299 14.5821 9.73078 14.5614 9.73728C14.5498 9.74377 14.5368 9.74767 14.5238 9.75286C14.4915 9.76585 14.4591 9.77754 14.4267 9.78923C14.4086 9.79572 14.3904 9.80221 14.3723 9.80871C14.3619 9.8126 14.349 9.8165 14.3386 9.8204C14.2765 9.84248 14.213 9.86326 14.1482 9.88144L14.1327 9.88534C14.0654 9.90482 3.06018 12.6958 3.06018 12.6958V12.3218L13.8944 9.57623C13.9617 9.55935 14.0291 9.54116 14.0964 9.52038C14.1962 9.49051 14.2946 9.45804 14.3917 9.42168C14.4228 9.41129 14.4565 9.3996 14.4863 9.38531C14.52 9.37362 14.551 9.36194 14.5821 9.34765C14.678 9.30999 14.7699 9.26713 14.8619 9.22427C14.9241 9.19569 14.9836 9.16582 15.0432 9.13335C15.1637 9.06971 15.2789 9.00348 15.3929 8.93075C15.4473 8.89438 15.5017 8.86061 15.5548 8.82295C15.56 8.82035 15.5652 8.81646 15.5704 8.81386C15.6209 8.77749 15.6727 8.74113 15.7232 8.70346C15.762 8.67489 15.8009 8.64372 15.8398 8.61385C15.8682 8.59177 15.8967 8.56969 15.9239 8.54372C15.9602 8.51514 15.9978 8.48397 16.0327 8.4528C16.0832 8.40735 16.1325 8.36449 16.1791 8.31903C16.227 8.27228 16.2749 8.22682 16.3216 8.18006C16.3643 8.13461 16.407 8.09045 16.4498 8.04629C16.4576 8.0372 16.4653 8.02941 16.4744 8.01902C16.512 7.97746 16.5482 7.9359 16.5845 7.89304C16.5845 7.89044 16.5884 7.88914 16.5897 7.88525C16.613 7.85927 16.6337 7.832 16.657 7.80472C16.7658 7.66835 16.8707 7.52419 16.9679 7.37613C17.0002 7.32808 17.03 7.27743 17.0611 7.22678C17.0676 7.21768 17.0741 7.206 17.0805 7.19561C17.1039 7.15534 17.1272 7.11508 17.1505 7.07352C17.1608 7.05274 17.1725 7.03326 17.1842 7.00988C17.2049 6.97222 17.2243 6.93196 17.245 6.89299C17.2722 6.83845 17.3007 6.7813 17.3266 6.72675C17.3525 6.66961 17.3784 6.61246 17.403 6.55532C17.4302 6.49298 17.4535 6.43064 17.4769 6.367C17.4976 6.31375 17.517 6.2592 17.5339 6.20465C17.5546 6.14491 17.574 6.08517 17.5908 6.02542C17.6103 5.96568 17.6258 5.90464 17.6414 5.8436C17.6556 5.79035 17.6686 5.7358 17.6815 5.67995C17.7204 5.50332 17.7527 5.32669 17.7735 5.14616C17.7773 5.12019 17.7812 5.09292 17.7825 5.06564C17.7864 5.03058 17.7903 4.99291 17.7916 4.95784C17.7955 4.92148 17.7981 4.88382 17.8007 4.84615C17.8032 4.81368 17.8382 4.22534 17.8447 4.11625C17.8447 4.10846 17.8447 4.10326 17.8447 4.09937L17.8499 4.10456Z" fill="url(#paint4_linear_240_2)"/>
<path opacity="0.75" d="M17.8433 2.0813V2.51898L3.85664 6.06329C2.20787 6.48149 0.173139 8.53483 0.0513916 10.7986V10.6583C0.0513916 10.6583 0.0513916 10.6505 0.0513916 10.6479C0.0513916 10.5323 0.0539822 10.418 0.0617533 10.305C0.0643437 10.2856 0.0656387 10.2687 0.0656387 10.2492C0.074705 10.1375 0.085067 10.0258 0.100609 9.91541C0.1032 9.89593 0.108381 9.87645 0.110971 9.85697C0.126513 9.74527 0.145941 9.63488 0.171845 9.52578C0.171845 9.5115 0.17832 9.49721 0.179615 9.48422C0.234013 9.25434 0.300067 9.03096 0.381664 8.81406C0.386844 8.79978 0.390731 8.78939 0.394616 8.7764C0.434767 8.6725 0.476213 8.5712 0.524135 8.46859C0.535791 8.44392 0.546151 8.41924 0.562989 8.39197C0.614796 8.31015 0.653652 8.22313 0.691212 8.13481C0.698983 8.11923 0.70805 8.10494 0.715821 8.09065C0.805189 7.93091 0.903623 7.77506 1.00983 7.6244C1.01242 7.6244 1.01242 7.6218 1.01371 7.6205C1.2067 7.34906 1.42558 7.09711 1.66778 6.86593C1.67296 6.85943 1.67944 6.85554 1.68462 6.84904C1.72606 6.81138 1.76751 6.77501 1.80896 6.73735C1.81673 6.72826 1.82709 6.72176 1.83486 6.71397C1.87501 6.6789 1.91775 6.64384 1.9579 6.61007C1.96956 6.60098 1.98121 6.59189 1.99158 6.5828C2.03432 6.54903 2.07576 6.51656 2.1185 6.48539C2.12887 6.4763 2.14052 6.46721 2.15218 6.45941C2.19492 6.42824 2.24025 6.39578 2.28299 6.3646C2.29335 6.35681 2.30501 6.34902 2.31796 6.34123C2.362 6.31135 2.40863 6.28019 2.45396 6.25291C2.46432 6.24512 2.47597 6.23733 2.48763 6.23083C2.53426 6.20226 2.58218 6.17239 2.6301 6.14511C2.64046 6.13992 2.64953 6.13342 2.65989 6.12823C2.70911 6.09836 2.75962 6.07109 2.81013 6.04381C2.8179 6.03992 2.82567 6.03602 2.83474 6.03082C2.88784 6.00355 2.94095 5.97757 2.99664 5.9503C3.00182 5.9477 3.007 5.94381 3.01089 5.94381C3.31266 5.79964 3.63387 5.68146 3.96932 5.59704L17.842 2.0813H17.8433Z" fill="url(#paint5_linear_240_2)"/>
<path d="M17.8434 10.7959V11.4777L17.846 12.1531L17.8485 12.8194L17.8498 13.5999C17.8524 14.6441 17.5442 15.6325 17.0054 16.4611C16.9277 16.5793 16.8461 16.6949 16.7593 16.8066C16.7153 16.8624 16.6725 16.9182 16.6259 16.9702C15.9446 17.7806 15.0134 18.3858 13.9306 18.6599L0.0579162 22.1769V21.4951L0.0553253 20.8197L0.0527344 20.1535V19.5482V19.3729C0.0527344 19.3729 0.0527344 19.3651 0.0527344 19.3625C0.0527344 19.2469 0.0566214 19.1326 0.0643925 19.0196C0.0669829 19.0015 0.0669827 18.9833 0.0682779 18.9651C0.0773442 18.8534 0.0890014 18.7417 0.103248 18.6313C0.105839 18.6118 0.109723 18.5923 0.113608 18.5729C0.12915 18.4612 0.149873 18.3521 0.174482 18.243C0.175777 18.2287 0.180959 18.2157 0.183549 18.2014C0.236652 17.9715 0.304001 17.7482 0.385597 17.5313C0.390778 17.5183 0.394664 17.5053 0.399844 17.4936C0.439995 17.3897 0.482736 17.2871 0.529363 17.1858C0.541019 17.1611 0.552676 17.1351 0.569513 17.1079C0.62132 17.0273 0.658881 16.939 0.697737 16.8507C0.704213 16.8351 0.714575 16.8208 0.722346 16.8066C0.811713 16.6468 0.910146 16.491 1.01635 16.3403C1.01635 16.3403 1.01894 16.339 1.01894 16.3364C1.21192 16.065 1.43081 15.813 1.67301 15.5818C1.67819 15.5766 1.68337 15.5714 1.68985 15.5649C1.73129 15.5273 1.77274 15.4909 1.81418 15.4532C1.82325 15.4442 1.83232 15.4364 1.84138 15.4286C1.88153 15.3935 1.92428 15.3584 1.96443 15.3247C1.97608 15.3156 1.98774 15.3065 1.9981 15.2987C2.04084 15.2649 2.08099 15.2325 2.12373 15.2013C2.13539 15.1922 2.14705 15.1831 2.1587 15.1753C2.20144 15.1441 2.24548 15.1117 2.28822 15.0818C2.29988 15.074 2.31154 15.0649 2.32319 15.0584C2.36723 15.0273 2.41385 14.9974 2.45918 14.9688C2.46955 14.9623 2.47991 14.9532 2.49156 14.9467C2.53949 14.9182 2.58611 14.8883 2.63404 14.861C2.6431 14.8558 2.65346 14.8493 2.66382 14.8441C2.71304 14.8156 2.76355 14.787 2.81407 14.761C2.82184 14.7558 2.82961 14.7532 2.83867 14.748C2.89178 14.7207 2.94617 14.6935 3.00057 14.6675C3.00575 14.6649 3.00964 14.6623 3.01482 14.661C3.3166 14.5155 3.6378 14.3987 3.97196 14.3142L17.8447 10.7985L17.8434 10.7959Z" fill="url(#paint6_radial_240_2)"/>
<path d="M17.8485 12.8207C17.8485 12.8207 17.8485 12.8298 17.8485 12.8376L17.8511 13.6C17.8511 13.6 17.8511 13.6091 17.8511 13.613C17.8511 13.6597 17.8511 13.7078 17.8485 13.7545C17.8472 13.7766 17.8459 13.7987 17.8459 13.8208C17.8459 13.8273 17.8459 13.8311 17.8459 13.8376C17.8433 13.8688 17.8433 13.9013 17.8407 13.9338C17.8394 13.9571 17.8381 13.9805 17.8368 14.0039C17.833 14.0428 17.8304 14.0818 17.8252 14.1208C17.8252 14.1312 17.8252 14.1429 17.8226 14.1532C17.8187 14.187 17.8148 14.2208 17.8109 14.2545C17.8058 14.2935 17.8006 14.3325 17.7941 14.3701C17.7928 14.3818 17.7902 14.3961 17.7876 14.4091C17.7824 14.4507 17.776 14.4896 17.7669 14.5325C17.7669 14.539 17.7656 14.5442 17.7643 14.5507C17.763 14.5611 17.7604 14.574 17.7578 14.587C17.7488 14.6403 17.7371 14.6935 17.7268 14.7468C17.7125 14.8078 17.6983 14.8702 17.6814 14.9299C17.6659 14.9909 17.649 15.0533 17.6309 15.1117C17.6115 15.1806 17.5882 15.2481 17.5662 15.3156V15.3169C17.5454 15.3767 17.5234 15.4351 17.5001 15.4936C17.4807 15.5455 17.4587 15.5962 17.4392 15.6468C17.4353 15.6546 17.4315 15.6637 17.4276 15.6715C17.4159 15.7014 17.403 15.7312 17.39 15.7598C17.3693 15.8053 17.3486 15.8494 17.3265 15.8949C17.324 15.9014 17.3214 15.9079 17.3162 15.9131C17.2903 15.9663 17.2618 16.0196 17.2346 16.0715C17.2216 16.0949 17.2087 16.1196 17.197 16.1416C17.1711 16.1897 17.1452 16.2339 17.1167 16.2793C17.1128 16.291 17.1051 16.3014 17.0986 16.3105C17.096 16.3157 17.0921 16.3209 17.0895 16.3261C17.0688 16.3611 17.0481 16.3936 17.0261 16.4274C17.0196 16.4391 17.0118 16.4481 17.0066 16.4585C16.9976 16.4728 16.9885 16.4871 16.9794 16.5014C16.9496 16.5456 16.9186 16.5923 16.8875 16.6352C16.8473 16.6923 16.8046 16.7495 16.7618 16.8053C16.7411 16.8326 16.7191 16.8599 16.6958 16.8884C16.6751 16.9157 16.6518 16.9417 16.6297 16.9702H16.6284C16.5831 17.0248 16.5365 17.078 16.4886 17.13C16.4419 17.1819 16.394 17.2339 16.3435 17.2845C16.3021 17.3248 16.2619 17.3638 16.2192 17.404C16.1712 17.4482 16.1233 17.4949 16.0715 17.5365C16.0469 17.5586 16.0223 17.5794 15.9951 17.6014C15.9873 17.6092 15.9783 17.6157 15.9692 17.6222C15.9394 17.6495 15.9083 17.6729 15.8785 17.6963C15.8656 17.7079 15.85 17.7196 15.8371 17.7287C15.7995 17.7586 15.7594 17.7885 15.7218 17.817C15.705 17.83 15.6868 17.8417 15.67 17.8534C15.6221 17.8898 15.5716 17.9235 15.5211 17.956C15.4628 17.9963 15.4019 18.0352 15.3397 18.0716C15.2789 18.1093 15.2154 18.1443 15.1519 18.1794C15.1027 18.2067 15.0535 18.2326 15.003 18.2586C14.9797 18.2703 14.9564 18.282 14.9318 18.2924C14.8761 18.3197 14.8204 18.3469 14.7634 18.3716H14.7621C14.696 18.4015 14.63 18.4288 14.5613 18.4547C14.5005 18.4794 14.437 18.5028 14.3735 18.5262C14.3632 18.5301 14.3502 18.534 14.3399 18.5378C14.2777 18.5599 14.2142 18.5807 14.1495 18.5989L14.1339 18.6028C14.0666 18.6223 13.9992 18.6417 13.9306 18.6586L3.0601 21.4133V21.0393L3.05751 20.634C3.05104 18.2443 4.66743 16.1572 6.38743 15.7221L17.8459 12.8181L17.8485 12.8207Z" fill="url(#paint7_linear_240_2)"/>
<path opacity="0.6" d="M3.06269 21.4171L0.0604522 22.1782L0.0578613 21.8028L3.06009 21.0417L3.06139 21.4158L3.06269 21.4171Z" fill="url(#paint8_linear_240_2)"/>
<path opacity="0.75" d="M17.8485 12.8193C17.8485 12.8193 17.8485 12.8284 17.8485 12.8362V13.2596L6.65293 16.0974C4.94069 16.5312 3.06915 18.665 3.06009 21.0405V20.6366C3.05232 18.2455 4.67 16.1597 6.39 15.7234L17.8485 12.8193Z" fill="url(#paint9_linear_240_2)"/>
<path opacity="0.5" d="M17.8499 12.8194V13.5987C17.8499 13.5987 17.8499 13.6078 17.8512 13.6116C17.8512 13.6155 17.8512 13.6207 17.8512 13.6246C17.8512 13.6675 17.8499 13.7104 17.8486 13.7532C17.8473 13.7753 17.846 13.7974 17.846 13.8194C17.846 13.8259 17.846 13.8298 17.846 13.8363C17.8434 13.8675 17.8434 13.9 17.8408 13.9324C17.8395 13.9558 17.8382 13.9792 17.8369 14.0026C17.8356 14.0091 17.8356 14.0143 17.8343 14.0208C17.8317 14.0532 17.8304 14.087 17.8253 14.1182C17.8253 14.1286 17.8253 14.1402 17.8227 14.1506C17.8188 14.1844 17.8149 14.2182 17.811 14.2519C17.8058 14.2909 17.8007 14.3299 17.7942 14.3675C17.7929 14.3792 17.7903 14.3935 17.7877 14.4065C17.7825 14.448 17.7761 14.487 17.767 14.5299C17.767 14.5364 17.7657 14.5416 17.7644 14.5481C17.7631 14.5584 17.7605 14.5714 17.7579 14.5844C17.7489 14.6377 17.7372 14.6909 17.7268 14.7442C17.7126 14.8052 17.6983 14.8675 17.6815 14.9273C17.666 14.9883 17.6491 15.0507 17.631 15.1091C17.6142 15.1689 17.5947 15.2286 17.5753 15.2883C17.5714 15.2961 17.5688 15.3052 17.5662 15.313V15.3143C17.5507 15.3611 17.5339 15.4065 17.5157 15.4533C17.5105 15.4663 17.5067 15.4793 17.5002 15.491C17.4808 15.5429 17.4587 15.5936 17.4393 15.6442C17.4354 15.652 17.4315 15.6611 17.4276 15.6689C17.416 15.6988 17.403 15.7286 17.3901 15.7572C17.3694 15.8027 17.3486 15.8468 17.3266 15.8923C17.324 15.8988 17.3214 15.9053 17.3163 15.9105C17.3085 15.9273 17.3007 15.9429 17.2929 15.9585C17.2865 15.9715 17.2774 15.9858 17.2722 15.9975C17.2606 16.0208 17.2476 16.0455 17.2347 16.0689C17.2217 16.0923 17.2088 16.117 17.1971 16.139C17.1712 16.1871 17.1453 16.2312 17.1168 16.2767C17.1129 16.2884 17.1051 16.2988 17.0987 16.3079C17.0961 16.3131 17.0922 16.3183 17.0896 16.3235C17.0689 16.3585 17.0482 16.391 17.0261 16.4248C17.0197 16.4364 17.0119 16.4455 17.0067 16.4559C16.9976 16.4702 16.9886 16.4845 16.9795 16.4988C16.9497 16.5429 16.9186 16.5897 16.8876 16.6326C16.8474 16.6897 16.8047 16.7469 16.7619 16.8027C16.7412 16.83 16.7192 16.8572 16.6959 16.8858C16.6751 16.9131 16.6518 16.9391 16.6298 16.9676H16.6285C16.5858 17.0183 16.543 17.0676 16.499 17.117C16.4951 17.1209 16.4925 17.1248 16.4886 17.1274C16.4485 17.1715 16.4083 17.2157 16.3669 17.2586C16.3578 17.2651 16.3513 17.2741 16.3436 17.2819C16.3021 17.3222 16.262 17.3612 16.2192 17.4014C16.1713 17.4456 16.1234 17.4923 16.0716 17.5339C16.047 17.556 16.0224 17.5768 15.9952 17.5988C15.9874 17.6066 15.9783 17.6131 15.9693 17.6196C15.9524 17.6352 15.9356 17.6482 15.9188 17.6638C15.9058 17.6742 15.8916 17.6859 15.8786 17.6949C15.8657 17.7066 15.8501 17.7183 15.8372 17.7274C15.8126 17.7482 15.7866 17.7664 15.7607 17.7859C15.7478 17.7949 15.7348 17.8053 15.7206 17.8157C15.7038 17.8287 15.6856 17.8404 15.6688 17.8521C15.6494 17.8677 15.6286 17.882 15.6092 17.895C15.6066 17.8988 15.6027 17.8988 15.5988 17.9014C15.5729 17.9196 15.547 17.9378 15.5198 17.9534C15.5095 17.9638 15.4965 17.9716 15.4836 17.9794C15.4357 18.0105 15.389 18.0404 15.3385 18.069C15.3087 18.0872 15.2789 18.1054 15.2479 18.1222H15.2466C15.2155 18.1404 15.1844 18.1586 15.152 18.1768C15.1028 18.2041 15.0536 18.23 15.0031 18.256C14.9797 18.2677 14.9564 18.2794 14.9318 18.2898C14.8761 18.317 14.8204 18.3443 14.7635 18.369H14.7622C14.7155 18.3898 14.6689 18.4106 14.621 18.43C14.6016 18.4378 14.5821 18.4456 14.5614 18.4521C14.5498 18.4586 14.5368 18.4625 14.5238 18.4677C14.4915 18.4807 14.4591 18.4924 14.4267 18.5041C14.4086 18.5106 14.3904 18.5171 14.3723 18.5236C14.3619 18.5274 14.349 18.5313 14.3386 18.5352C14.2765 18.5573 14.213 18.5781 14.1482 18.5963L14.1327 18.6002C14.0654 18.6197 3.06018 21.4107 3.06018 21.4107V21.0366L13.8944 18.2911C13.9617 18.2742 14.0291 18.256 14.0964 18.2352C14.1962 18.2054 14.2946 18.1729 14.3917 18.1365C14.4228 18.1261 14.4565 18.1144 14.4863 18.1002C14.52 18.0885 14.551 18.0768 14.5821 18.0625C14.678 18.0248 14.7699 17.982 14.8619 17.9391C14.9241 17.9105 14.9836 17.8807 15.0432 17.8482C15.1637 17.7846 15.2789 17.7183 15.3929 17.6456C15.4473 17.6092 15.5017 17.5755 15.5548 17.5378C15.56 17.5352 15.5652 17.5313 15.5704 17.5287C15.6209 17.4923 15.6727 17.456 15.7232 17.4183C15.762 17.3897 15.8009 17.3586 15.8398 17.3287C15.8682 17.3066 15.8967 17.2845 15.9239 17.2586C15.9602 17.23 15.9978 17.1988 16.0327 17.1676C16.0832 17.1222 16.1325 17.0793 16.1791 17.0339C16.227 16.9871 16.2749 16.9417 16.3216 16.8949C16.3643 16.8495 16.407 16.8053 16.4498 16.7611C16.4576 16.752 16.4653 16.7443 16.4744 16.7339C16.512 16.6923 16.5482 16.6507 16.5845 16.6079C16.5845 16.6053 16.5884 16.604 16.5897 16.6001C16.613 16.5741 16.6337 16.5468 16.657 16.5196C16.7658 16.3832 16.8707 16.239 16.9679 16.091C17.0002 16.0429 17.03 15.9923 17.0611 15.9416C17.0676 15.9325 17.0741 15.9208 17.0805 15.9105C17.1039 15.8702 17.1272 15.8299 17.1505 15.7884C17.1608 15.7676 17.1725 15.7481 17.1842 15.7247C17.2049 15.6871 17.2243 15.6468 17.245 15.6078C17.2722 15.5533 17.3007 15.4961 17.3266 15.4416C17.3525 15.3845 17.3784 15.3273 17.403 15.2702C17.4302 15.2078 17.4535 15.1455 17.4769 15.0818C17.4976 15.0286 17.517 14.974 17.5339 14.9195C17.5546 14.8598 17.574 14.8 17.5908 14.7403C17.6103 14.6805 17.6258 14.6195 17.6414 14.5584C17.6556 14.5052 17.6686 14.4506 17.6815 14.3948C17.7204 14.2182 17.7527 14.0415 17.7735 13.861C17.7773 13.835 17.7812 13.8078 17.7825 13.7805C17.7864 13.7454 17.7903 13.7078 17.7916 13.6727C17.7955 13.6363 17.7981 13.5987 17.8007 13.561C17.8032 13.5285 17.8382 12.9402 17.8447 12.8311C17.8447 12.8233 17.8447 12.8181 17.8447 12.8142L17.8499 12.8194Z" fill="url(#paint10_linear_240_2)"/>
<path opacity="0.75" d="M17.8433 10.7959V11.2336L3.85664 14.7779C2.20787 15.1961 0.173139 17.2494 0.0513916 19.5132V19.3729C0.0513916 19.3729 0.0513916 19.3651 0.0513916 19.3625C0.0513916 19.2469 0.0539822 19.1326 0.0617533 19.0196C0.0643437 19.0002 0.0656387 18.9833 0.0656387 18.9638C0.074705 18.8521 0.085067 18.7404 0.100609 18.63C0.1032 18.6105 0.108381 18.591 0.110971 18.5716C0.126513 18.4599 0.145941 18.3495 0.171845 18.2404C0.171845 18.2261 0.17832 18.2118 0.179615 18.1988C0.234013 17.9689 0.300067 17.7456 0.381664 17.5287C0.386844 17.5144 0.390731 17.504 0.394616 17.491C0.434767 17.3871 0.476213 17.2858 0.524135 17.1832C0.535791 17.1585 0.546151 17.1338 0.562989 17.1066C0.614796 17.0247 0.653652 16.9377 0.691212 16.8494C0.698983 16.8338 0.70805 16.8195 0.715821 16.8053C0.805189 16.6455 0.903623 16.4897 1.00983 16.339C1.01242 16.339 1.01242 16.3364 1.01371 16.3351C1.2067 16.0637 1.42558 15.8117 1.66778 15.5805C1.67296 15.574 1.67944 15.5701 1.68462 15.5636C1.72606 15.526 1.76751 15.4896 1.80896 15.4519C1.81673 15.4429 1.82709 15.4364 1.83486 15.4286C1.87501 15.3935 1.91775 15.3584 1.9579 15.3247C1.96956 15.3156 1.98121 15.3065 1.99158 15.2974C2.03432 15.2636 2.07576 15.2312 2.1185 15.2C2.12887 15.1909 2.14052 15.1818 2.15218 15.174C2.19492 15.1428 2.24025 15.1104 2.28299 15.0792C2.29335 15.0714 2.30501 15.0636 2.31796 15.0558C2.362 15.026 2.40863 14.9948 2.45396 14.9675C2.46432 14.9597 2.47597 14.9519 2.48763 14.9454C2.53426 14.9169 2.58218 14.887 2.6301 14.8597C2.64046 14.8545 2.64953 14.848 2.65989 14.8428C2.70911 14.813 2.75962 14.7857 2.81013 14.7584C2.8179 14.7545 2.82567 14.7506 2.83474 14.7454C2.88784 14.7181 2.94095 14.6922 2.99664 14.6649C3.00182 14.6623 3.007 14.6584 3.01089 14.6584C3.31266 14.5142 3.63387 14.3961 3.96932 14.3116L17.842 10.7959H17.8433Z" fill="url(#paint11_linear_240_2)"/>
<path d="M17.8434 19.5261V20.208L17.846 20.8833L17.8485 21.5496L17.8498 22.3301C17.8524 23.3743 17.5442 24.3627 17.0054 25.1913C16.9277 25.3095 16.8461 25.4251 16.7593 25.5368C16.7153 25.5926 16.6725 25.6485 16.6259 25.7004C15.9446 26.5108 15.0134 27.1161 13.9306 27.3901L0.0579162 30.9071V30.2253L0.0553253 29.5499L0.0527344 28.8837V28.2785V28.1031C0.0527344 28.1031 0.0527344 28.0953 0.0527344 28.0927C0.0527344 27.9771 0.0566214 27.8629 0.0643925 27.7499C0.0669829 27.7317 0.0669827 27.7135 0.0682779 27.6953C0.0773442 27.5836 0.0890014 27.4719 0.103248 27.3615C0.105839 27.3421 0.109723 27.3226 0.113608 27.3031C0.12915 27.1914 0.149873 27.0823 0.174482 26.9732C0.175777 26.9589 0.180959 26.9459 0.183549 26.9316C0.236652 26.7018 0.304001 26.4784 0.385597 26.2615C0.390778 26.2485 0.394664 26.2355 0.399844 26.2238C0.439995 26.1199 0.482736 26.0173 0.529363 25.916C0.541019 25.8913 0.552676 25.8654 0.569513 25.8381C0.62132 25.7576 0.658881 25.6693 0.697737 25.5809C0.704213 25.5654 0.714575 25.5511 0.722346 25.5368C0.811713 25.377 0.910146 25.2212 1.01635 25.0705C1.01635 25.0705 1.01894 25.0692 1.01894 25.0666C1.21192 24.7952 1.43081 24.5432 1.67301 24.312C1.67819 24.3069 1.68337 24.3017 1.68985 24.2952C1.73129 24.2575 1.77274 24.2211 1.81418 24.1835C1.82325 24.1744 1.83232 24.1666 1.84138 24.1588C1.88153 24.1237 1.92428 24.0887 1.96443 24.0549C1.97608 24.0458 1.98774 24.0367 1.9981 24.0289C2.04084 23.9951 2.08099 23.9627 2.12373 23.9315C2.13539 23.9224 2.14705 23.9133 2.1587 23.9055C2.20144 23.8744 2.24548 23.8419 2.28822 23.812C2.29988 23.8042 2.31154 23.7951 2.32319 23.7887C2.36723 23.7575 2.41385 23.7276 2.45918 23.699C2.46955 23.6925 2.47991 23.6834 2.49156 23.677C2.53949 23.6484 2.58611 23.6185 2.63404 23.5912C2.6431 23.586 2.65346 23.5795 2.66382 23.5744C2.71304 23.5458 2.76355 23.5172 2.81407 23.4912C2.82184 23.486 2.82961 23.4834 2.83867 23.4782C2.89178 23.451 2.94617 23.4237 3.00057 23.3977C3.00575 23.3951 3.00964 23.3925 3.01482 23.3912C3.3166 23.2458 3.6378 23.1289 3.97196 23.0445L17.8447 19.5287L17.8434 19.5261Z" fill="url(#paint12_radial_240_2)"/>
<path d="M17.8485 21.5509C17.8485 21.5509 17.8485 21.56 17.8485 21.5678L17.8511 22.3302C17.8511 22.3302 17.8511 22.3393 17.8511 22.3432C17.8511 22.3899 17.8511 22.438 17.8485 22.4847C17.8472 22.5068 17.8459 22.5289 17.8459 22.551C17.8459 22.5575 17.8459 22.5614 17.8459 22.5679C17.8433 22.599 17.8433 22.6315 17.8407 22.664C17.8394 22.6874 17.8381 22.7107 17.8368 22.7341C17.833 22.7731 17.8304 22.812 17.8252 22.851C17.8252 22.8614 17.8252 22.8731 17.8226 22.8835C17.8187 22.9172 17.8148 22.951 17.8109 22.9848C17.8058 23.0237 17.8006 23.0627 17.7941 23.1004C17.7928 23.112 17.7902 23.1263 17.7876 23.1393C17.7824 23.1809 17.776 23.2198 17.7669 23.2627C17.7669 23.2692 17.7656 23.2744 17.7643 23.2809C17.763 23.2913 17.7604 23.3043 17.7578 23.3172C17.7488 23.3705 17.7371 23.4237 17.7268 23.477C17.7125 23.538 17.6983 23.6004 17.6814 23.6601C17.6659 23.7212 17.649 23.7835 17.6309 23.8419C17.6115 23.9108 17.5882 23.9783 17.5662 24.0459V24.0471C17.5454 24.1069 17.5234 24.1653 17.5001 24.2238C17.4807 24.2757 17.4587 24.3264 17.4392 24.377C17.4353 24.3848 17.4315 24.3939 17.4276 24.4017C17.4159 24.4316 17.403 24.4615 17.39 24.49C17.3693 24.5355 17.3486 24.5796 17.3265 24.6251C17.324 24.6316 17.3214 24.6381 17.3162 24.6433C17.2903 24.6965 17.2618 24.7498 17.2346 24.8017C17.2216 24.8251 17.2087 24.8498 17.197 24.8719C17.1711 24.9199 17.1452 24.9641 17.1167 25.0095C17.1128 25.0212 17.1051 25.0316 17.0986 25.0407C17.096 25.0459 17.0921 25.0511 17.0895 25.0563C17.0688 25.0914 17.0481 25.1238 17.0261 25.1576C17.0196 25.1693 17.0118 25.1784 17.0066 25.1888C16.9976 25.203 16.9885 25.2173 16.9794 25.2316C16.9496 25.2758 16.9186 25.3225 16.8875 25.3654C16.8473 25.4225 16.8046 25.4797 16.7618 25.5355C16.7411 25.5628 16.7191 25.5901 16.6958 25.6186C16.6751 25.6459 16.6518 25.6719 16.6297 25.7005H16.6284C16.5831 25.755 16.5365 25.8083 16.4886 25.8602C16.4419 25.9122 16.394 25.9641 16.3435 26.0148C16.3021 26.055 16.2619 26.094 16.2192 26.1343C16.1712 26.1784 16.1233 26.2252 16.0715 26.2667C16.0469 26.2888 16.0223 26.3096 15.9951 26.3317C15.9873 26.3395 15.9783 26.346 15.9692 26.3524C15.9394 26.3797 15.9083 26.4031 15.8785 26.4265C15.8656 26.4382 15.85 26.4499 15.8371 26.4589C15.7995 26.4888 15.7594 26.5187 15.7218 26.5473C15.705 26.5602 15.6868 26.5719 15.67 26.5836C15.6221 26.62 15.5716 26.6538 15.5211 26.6862C15.4628 26.7265 15.4019 26.7655 15.3397 26.8018C15.2789 26.8395 15.2154 26.8745 15.1519 26.9096C15.1027 26.9369 15.0535 26.9629 15.003 26.9888C14.9797 27.0005 14.9564 27.0122 14.9318 27.0226C14.8761 27.0499 14.8204 27.0772 14.7634 27.1018H14.7621C14.696 27.1317 14.63 27.159 14.5613 27.185C14.5005 27.2096 14.437 27.233 14.3735 27.2564C14.3632 27.2603 14.3502 27.2642 14.3399 27.2681C14.2777 27.2901 14.2142 27.3109 14.1495 27.3291L14.1339 27.333C14.0666 27.3525 13.9992 27.372 13.9306 27.3889L3.0601 30.1435V29.7695L3.05751 29.3643C3.05104 26.9746 4.66743 24.8874 6.38743 24.4524L17.8459 21.5483L17.8485 21.5509Z" fill="url(#paint13_linear_240_2)"/>
<path opacity="0.6" d="M3.06269 30.1473L0.0604522 30.9084L0.0578613 30.533L3.06009 29.772L3.06139 30.146L3.06269 30.1473Z" fill="url(#paint14_linear_240_2)"/>
<path opacity="0.75" d="M17.8485 21.5496C17.8485 21.5496 17.8485 21.5587 17.8485 21.5664V21.9898L6.65293 24.8276C4.94069 25.2614 3.06915 27.3953 3.06009 29.7707V29.3668C3.05232 26.9758 4.67 24.89 6.39 24.4536L17.8485 21.5496Z" fill="url(#paint15_linear_240_2)"/>
<path opacity="0.5" d="M17.8499 21.5496V22.3289C17.8499 22.3289 17.8499 22.338 17.8512 22.3419C17.8512 22.3458 17.8512 22.351 17.8512 22.3549C17.8512 22.3977 17.8499 22.4406 17.8486 22.4834C17.8473 22.5055 17.846 22.5276 17.846 22.5497C17.846 22.5562 17.846 22.5601 17.846 22.5666C17.8434 22.5977 17.8434 22.6302 17.8408 22.6627C17.8395 22.686 17.8382 22.7094 17.8369 22.7328C17.8356 22.7393 17.8356 22.7445 17.8343 22.751C17.8317 22.7834 17.8304 22.8172 17.8253 22.8484C17.8253 22.8588 17.8253 22.8705 17.8227 22.8809C17.8188 22.9146 17.8149 22.9484 17.811 22.9822C17.8058 23.0211 17.8007 23.0601 17.7942 23.0977C17.7929 23.1094 17.7903 23.1237 17.7877 23.1367C17.7825 23.1783 17.7761 23.2172 17.767 23.2601C17.767 23.2666 17.7657 23.2718 17.7644 23.2783C17.7631 23.2887 17.7605 23.3017 17.7579 23.3146C17.7489 23.3679 17.7372 23.4211 17.7268 23.4744C17.7126 23.5354 17.6983 23.5978 17.6815 23.6575C17.666 23.7186 17.6491 23.7809 17.631 23.8393C17.6142 23.8991 17.5947 23.9588 17.5753 24.0186C17.5714 24.0264 17.5688 24.0355 17.5662 24.0432V24.0445C17.5507 24.0913 17.5339 24.1368 17.5157 24.1835C17.5105 24.1965 17.5067 24.2095 17.5002 24.2212C17.4808 24.2731 17.4587 24.3238 17.4393 24.3744C17.4354 24.3822 17.4315 24.3913 17.4276 24.3991C17.416 24.429 17.403 24.4588 17.3901 24.4874C17.3694 24.5329 17.3486 24.577 17.3266 24.6225C17.324 24.629 17.3214 24.6355 17.3163 24.6407C17.3085 24.6576 17.3007 24.6731 17.2929 24.6887C17.2865 24.7017 17.2774 24.716 17.2722 24.7277C17.2606 24.7511 17.2476 24.7757 17.2347 24.7991C17.2217 24.8225 17.2088 24.8472 17.1971 24.8693C17.1712 24.9173 17.1453 24.9615 17.1168 25.0069C17.1129 25.0186 17.1051 25.029 17.0987 25.0381C17.0961 25.0433 17.0922 25.0485 17.0896 25.0537C17.0689 25.0887 17.0482 25.1212 17.0261 25.155C17.0197 25.1667 17.0119 25.1758 17.0067 25.1862C16.9976 25.2004 16.9886 25.2147 16.9795 25.229C16.9497 25.2732 16.9186 25.3199 16.8876 25.3628C16.8474 25.4199 16.8047 25.4771 16.7619 25.5329C16.7412 25.5602 16.7192 25.5875 16.6959 25.616C16.6751 25.6433 16.6518 25.6693 16.6298 25.6979H16.6285C16.5858 25.7485 16.543 25.7979 16.499 25.8472C16.4951 25.8511 16.4925 25.855 16.4886 25.8576C16.4485 25.9018 16.4083 25.9459 16.3669 25.9888C16.3578 25.9953 16.3513 26.0044 16.3436 26.0122C16.3021 26.0524 16.262 26.0914 16.2192 26.1316C16.1713 26.1758 16.1234 26.2226 16.0716 26.2641C16.047 26.2862 16.0224 26.307 15.9952 26.3291C15.9874 26.3369 15.9783 26.3433 15.9693 26.3498C15.9524 26.3654 15.9356 26.3784 15.9188 26.394C15.9058 26.4044 15.8916 26.4161 15.8786 26.4252C15.8657 26.4369 15.8501 26.4485 15.8372 26.4576C15.8126 26.4784 15.7866 26.4966 15.7607 26.5161C15.7478 26.5252 15.7348 26.5356 15.7206 26.546C15.7038 26.5589 15.6856 26.5706 15.6688 26.5823C15.6494 26.5979 15.6286 26.6122 15.6092 26.6252C15.6066 26.6291 15.6027 26.6291 15.5988 26.6317C15.5729 26.6499 15.547 26.668 15.5198 26.6836C15.5095 26.694 15.4965 26.7018 15.4836 26.7096C15.4357 26.7408 15.389 26.7706 15.3385 26.7992C15.3087 26.8174 15.2789 26.8356 15.2479 26.8525H15.2466C15.2155 26.8706 15.1844 26.8888 15.152 26.907C15.1028 26.9343 15.0536 26.9603 15.0031 26.9862C14.9797 26.9979 14.9564 27.0096 14.9318 27.02C14.8761 27.0473 14.8204 27.0745 14.7635 27.0992H14.7622C14.7155 27.12 14.6689 27.1408 14.621 27.1603C14.6016 27.1681 14.5821 27.1759 14.5614 27.1823C14.5498 27.1888 14.5368 27.1927 14.5238 27.1979C14.4915 27.2109 14.4591 27.2226 14.4267 27.2343C14.4086 27.2408 14.3904 27.2473 14.3723 27.2538C14.3619 27.2577 14.349 27.2616 14.3386 27.2655C14.2765 27.2875 14.213 27.3083 14.1482 27.3265L14.1327 27.3304C14.0654 27.3499 3.06018 30.1409 3.06018 30.1409V29.7669L13.8944 27.0213C13.9617 27.0044 14.0291 26.9862 14.0964 26.9655C14.1962 26.9356 14.2946 26.9031 14.3917 26.8667C14.4228 26.8564 14.4565 26.8447 14.4863 26.8304C14.52 26.8187 14.551 26.807 14.5821 26.7927C14.678 26.7551 14.7699 26.7122 14.8619 26.6693C14.9241 26.6408 14.9836 26.6109 15.0432 26.5784C15.1637 26.5148 15.2789 26.4485 15.3929 26.3758C15.4473 26.3394 15.5017 26.3057 15.5548 26.268C15.56 26.2654 15.5652 26.2615 15.5704 26.2589C15.6209 26.2226 15.6727 26.1862 15.7232 26.1485C15.762 26.12 15.8009 26.0888 15.8398 26.0589C15.8682 26.0368 15.8967 26.0148 15.9239 25.9888C15.9602 25.9602 15.9978 25.929 16.0327 25.8979C16.0832 25.8524 16.1325 25.8096 16.1791 25.7641C16.227 25.7173 16.2749 25.6719 16.3216 25.6251C16.3643 25.5797 16.407 25.5355 16.4498 25.4914C16.4576 25.4823 16.4653 25.4745 16.4744 25.4641C16.512 25.4225 16.5482 25.381 16.5845 25.3381C16.5845 25.3355 16.5884 25.3342 16.5897 25.3303C16.613 25.3043 16.6337 25.2771 16.657 25.2498C16.7658 25.1134 16.8707 24.9693 16.9679 24.8212C17.0002 24.7731 17.03 24.7225 17.0611 24.6718C17.0676 24.6628 17.0741 24.6511 17.0805 24.6407C17.1039 24.6004 17.1272 24.5602 17.1505 24.5186C17.1608 24.4978 17.1725 24.4783 17.1842 24.455C17.2049 24.4173 17.2243 24.377 17.245 24.3381C17.2722 24.2835 17.3007 24.2264 17.3266 24.1718C17.3525 24.1147 17.3784 24.0575 17.403 24.0004C17.4302 23.938 17.4535 23.8757 17.4769 23.8121C17.4976 23.7588 17.517 23.7043 17.5339 23.6497C17.5546 23.59 17.574 23.5302 17.5908 23.4705C17.6103 23.4107 17.6258 23.3497 17.6414 23.2887C17.6556 23.2354 17.6686 23.1809 17.6815 23.125C17.7204 22.9484 17.7527 22.7718 17.7735 22.5912C17.7773 22.5653 17.7812 22.538 17.7825 22.5107C17.7864 22.4756 17.7903 22.438 17.7916 22.4029C17.7955 22.3665 17.7981 22.3289 17.8007 22.2912C17.8032 22.2588 17.8382 21.6704 17.8447 21.5613C17.8447 21.5535 17.8447 21.5483 17.8447 21.5444L17.8499 21.5496Z" fill="url(#paint16_linear_240_2)"/>
<path opacity="0.75" d="M17.8433 19.5261V19.9638L3.85664 23.5081C2.20787 23.9263 0.173139 25.9797 0.0513916 28.2434V28.1031C0.0513916 28.1031 0.0513916 28.0953 0.0513916 28.0927C0.0513916 27.9771 0.0539822 27.8629 0.0617533 27.7499C0.0643437 27.7304 0.0656387 27.7135 0.0656387 27.694C0.074705 27.5823 0.085067 27.4706 0.100609 27.3602C0.1032 27.3408 0.108381 27.3213 0.110971 27.3018C0.126513 27.1901 0.145941 27.0797 0.171845 26.9706C0.171845 26.9563 0.17832 26.942 0.179615 26.929C0.234013 26.6992 0.300067 26.4758 0.381664 26.2589C0.386844 26.2446 0.390731 26.2342 0.394616 26.2212C0.434767 26.1173 0.476213 26.016 0.524135 25.9134C0.535791 25.8887 0.546151 25.8641 0.562989 25.8368C0.614796 25.755 0.653652 25.6679 0.691212 25.5796C0.698983 25.564 0.70805 25.5498 0.715821 25.5355C0.805189 25.3757 0.903623 25.2199 1.00983 25.0692C1.01242 25.0692 1.01242 25.0666 1.01371 25.0653C1.2067 24.7939 1.42558 24.5419 1.66778 24.3107C1.67296 24.3043 1.67944 24.3004 1.68462 24.2939C1.72606 24.2562 1.76751 24.2198 1.80896 24.1822C1.81673 24.1731 1.82709 24.1666 1.83486 24.1588C1.87501 24.1237 1.91775 24.0887 1.9579 24.0549C1.96956 24.0458 1.98121 24.0367 1.99158 24.0276C2.03432 23.9939 2.07576 23.9614 2.1185 23.9302C2.12887 23.9211 2.14052 23.912 2.15218 23.9042C2.19492 23.8731 2.24025 23.8406 2.28299 23.8094C2.29335 23.8016 2.30501 23.7938 2.31796 23.786C2.362 23.7562 2.40863 23.725 2.45396 23.6977C2.46432 23.6899 2.47597 23.6822 2.48763 23.6757C2.53426 23.6471 2.58218 23.6172 2.6301 23.5899C2.64046 23.5847 2.64953 23.5782 2.65989 23.5731C2.70911 23.5432 2.75962 23.5159 2.81013 23.4886C2.8179 23.4847 2.82567 23.4808 2.83474 23.4756C2.88784 23.4484 2.94095 23.4224 2.99664 23.3951C3.00182 23.3925 3.007 23.3886 3.01089 23.3886C3.31266 23.2445 3.63387 23.1263 3.96932 23.0419L17.842 19.5261H17.8433Z" fill="url(#paint17_linear_240_2)"/>
<defs>
<radialGradient id="paint0_radial_240_2" cx="0" cy="0" r="1" gradientUnits="userSpaceOnUse" gradientTransform="translate(19.3561 3.35798) scale(27.5926 27.6687)">
<stop offset="0.15" stop-color="#DD3432"/>
<stop offset="0.29" stop-color="#CE2F2F"/>
<stop offset="0.42" stop-color="#C62D2E"/>
<stop offset="0.62" stop-color="#A12126"/>
<stop offset="0.8" stop-color="#881921"/>
<stop offset="0.91" stop-color="#7F1620"/>
<stop offset="0.95" stop-color="#841721"/>
<stop offset="1" stop-color="#971E26"/>
</radialGradient>
<linearGradient id="paint1_linear_240_2" x1="2.48726" y1="10.4219" x2="18.4276" y2="6.40541" gradientUnits="userSpaceOnUse">
<stop stop-color="#E32D2B"/>
<stop offset="0.09" stop-color="#E02E2C"/>
<stop offset="0.42" stop-color="#DD302E"/>
<stop offset="0.81" stop-color="#DE3D3B"/>
<stop offset="1" stop-color="#E3322F"/>
</linearGradient>
<linearGradient id="paint2_linear_240_2" x1="0.0146802" y1="13.2856" x2="3.10477" y2="12.507" gradientUnits="userSpaceOnUse">
<stop stop-color="#911C24"/>
<stop offset="0.19" stop-color="#82181D"/>
<stop offset="0.79" stop-color="#5B0D0B"/>
</linearGradient>
<linearGradient id="paint3_linear_240_2" x1="2.52915" y1="10.2226" x2="18.3828" y2="6.22792" gradientUnits="userSpaceOnUse">
<stop offset="0.17" stop-color="#E35655"/>
<stop offset="0.73" stop-color="#DD3432"/>
</linearGradient>
<linearGradient id="paint4_linear_240_2" x1="2.48702" y1="10.4207" x2="18.4286" y2="6.40383" gradientUnits="userSpaceOnUse">
<stop stop-color="#E22D2B"/>
<stop offset="0.14" stop-color="#D52D2B"/>
<stop offset="0.28" stop-color="#C62E2C"/>
<stop offset="0.46" stop-color="#B02527"/>
<stop offset="0.6" stop-color="#A72126"/>
<stop offset="0.68" stop-color="#8A191B"/>
<stop offset="0.8" stop-color="#670F0E"/>
<stop offset="0.87" stop-color="#5A0C09"/>
<stop offset="0.93" stop-color="#4C0803"/>
<stop offset="1" stop-color="#430600"/>
</linearGradient>
<linearGradient id="paint5_linear_240_2" x1="-0.446635" y1="8.81988" x2="18.3477" y2="4.08425" gradientUnits="userSpaceOnUse">
<stop offset="0.02" stop-color="#E14A48" stop-opacity="0.3"/>
<stop offset="0.11" stop-color="#E04543" stop-opacity="0.34"/>
<stop offset="0.25" stop-color="#DD3836" stop-opacity="0.46"/>
<stop offset="0.29" stop-color="#DD3432" stop-opacity="0.5"/>
<stop offset="1" stop-color="#C62D2E" stop-opacity="0"/>
</linearGradient>
<radialGradient id="paint6_radial_240_2" cx="0" cy="0" r="1" gradientUnits="userSpaceOnUse" gradientTransform="translate(19.3561 12.0726) scale(27.5926 27.6688)">
<stop offset="0.15" stop-color="#DD3432"/>
<stop offset="0.29" stop-color="#CE2F2F"/>
<stop offset="0.42" stop-color="#C62D2E"/>
<stop offset="0.62" stop-color="#A12126"/>
<stop offset="0.8" stop-color="#881921"/>
<stop offset="0.91" stop-color="#7F1620"/>
<stop offset="0.95" stop-color="#841721"/>
<stop offset="1" stop-color="#971E26"/>
</radialGradient>
<linearGradient id="paint7_linear_240_2" x1="2.48676" y1="19.1362" x2="18.4271" y2="15.1196" gradientUnits="userSpaceOnUse">
<stop stop-color="#E32D2B"/>
<stop offset="0.09" stop-color="#E02E2C"/>
<stop offset="0.42" stop-color="#DD302E"/>
<stop offset="0.81" stop-color="#DE3D3B"/>
<stop offset="1" stop-color="#E3322F"/>
</linearGradient>
<linearGradient id="paint8_linear_240_2" x1="0.0141806" y1="21.9996" x2="3.10427" y2="21.221" gradientUnits="userSpaceOnUse">
<stop stop-color="#911C24"/>
<stop offset="0.19" stop-color="#82181D"/>
<stop offset="0.79" stop-color="#5B0D0B"/>
</linearGradient>
<linearGradient id="paint9_linear_240_2" x1="2.52897" y1="18.9378" x2="18.3826" y2="14.9432" gradientUnits="userSpaceOnUse">
<stop offset="0.17" stop-color="#E35655"/>
<stop offset="0.73" stop-color="#DD3432"/>
</linearGradient>
<linearGradient id="paint10_linear_240_2" x1="2.48652" y1="19.1349" x2="18.4281" y2="15.1181" gradientUnits="userSpaceOnUse">
<stop stop-color="#E22D2B"/>
<stop offset="0.14" stop-color="#D52D2B"/>
<stop offset="0.28" stop-color="#C62E2C"/>
<stop offset="0.46" stop-color="#B02527"/>
<stop offset="0.6" stop-color="#A72126"/>
<stop offset="0.68" stop-color="#8A191B"/>
<stop offset="0.8" stop-color="#670F0E"/>
<stop offset="0.87" stop-color="#5A0C09"/>
<stop offset="0.93" stop-color="#4C0803"/>
<stop offset="1" stop-color="#430600"/>
</linearGradient>
<linearGradient id="paint11_linear_240_2" x1="-0.447134" y1="17.5339" x2="18.3472" y2="12.7982" gradientUnits="userSpaceOnUse">
<stop offset="0.02" stop-color="#E14A48" stop-opacity="0.3"/>
<stop offset="0.11" stop-color="#E04543" stop-opacity="0.34"/>
<stop offset="0.25" stop-color="#DD3836" stop-opacity="0.46"/>
<stop offset="0.29" stop-color="#DD3432" stop-opacity="0.5"/>
<stop offset="1" stop-color="#C62D2E" stop-opacity="0"/>
</linearGradient>
<radialGradient id="paint12_radial_240_2" cx="0" cy="0" r="1" gradientUnits="userSpaceOnUse" gradientTransform="translate(19.3561 20.8028) scale(0.0647592 0.0649379)">
<stop offset="0.15" stop-color="#DD3432"/>
<stop offset="0.29" stop-color="#CE2F2F"/>
<stop offset="0.42" stop-color="#C62D2E"/>
<stop offset="0.62" stop-color="#A12126"/>
<stop offset="0.8" stop-color="#881921"/>
<stop offset="0.91" stop-color="#7F1620"/>
<stop offset="0.95" stop-color="#841721"/>
<stop offset="1" stop-color="#971E26"/>
</radialGradient>
<linearGradient id="paint13_linear_240_2" x1="2.4863" y1="27.8663" x2="18.4266" y2="23.8497" gradientUnits="userSpaceOnUse">
<stop stop-color="#E32D2B"/>
<stop offset="0.09" stop-color="#E02E2C"/>
<stop offset="0.42" stop-color="#DD302E"/>
<stop offset="0.81" stop-color="#DE3D3B"/>
<stop offset="1" stop-color="#E3322F"/>
</linearGradient>
<linearGradient id="paint14_linear_240_2" x1="0.0137213" y1="30.7297" x2="3.10381" y2="29.9511" gradientUnits="userSpaceOnUse">
<stop stop-color="#911C24"/>
<stop offset="0.19" stop-color="#82181D"/>
<stop offset="0.79" stop-color="#5B0D0B"/>
</linearGradient>
<linearGradient id="paint15_linear_240_2" x1="2.52851" y1="27.6679" x2="18.3822" y2="23.6733" gradientUnits="userSpaceOnUse">
<stop offset="0.17" stop-color="#E35655"/>
<stop offset="0.73" stop-color="#DD3432"/>
</linearGradient>
<linearGradient id="paint16_linear_240_2" x1="2.48638" y1="27.8662" x2="18.428" y2="23.8494" gradientUnits="userSpaceOnUse">
<stop stop-color="#E22D2B"/>
<stop offset="0.14" stop-color="#D52D2B"/>
<stop offset="0.28" stop-color="#C62E2C"/>
<stop offset="0.46" stop-color="#B02527"/>
<stop offset="0.6" stop-color="#A72126"/>
<stop offset="0.68" stop-color="#8A191B"/>
<stop offset="0.8" stop-color="#670F0E"/>
<stop offset="0.87" stop-color="#5A0C09"/>
<stop offset="0.93" stop-color="#4C0803"/>
<stop offset="1" stop-color="#430600"/>
</linearGradient>
<linearGradient id="paint17_linear_240_2" x1="-0.447593" y1="26.264" x2="18.3467" y2="21.5283" gradientUnits="userSpaceOnUse">
<stop offset="0.02" stop-color="#E14A48" stop-opacity="0.3"/>
<stop offset="0.11" stop-color="#E04543" stop-opacity="0.34"/>
<stop offset="0.25" stop-color="#DD3836" stop-opacity="0.46"/>
<stop offset="0.29" stop-color="#DD3432" stop-opacity="0.5"/>
<stop offset="1" stop-color="#C62D2E" stop-opacity="0"/>
</linearGradient>
</defs>
</svg>
