<svg width="78" height="31" viewBox="0 0 78 31" fill="none" xmlns="http://www.w3.org/2000/svg">
<path d="M72.4392 7.34765C70.0108 7.34765 67.853 8.40483 67.853 8.40483L68.8101 10.84C68.8101 10.84 70.6001 9.97893 72.2929 9.97893C73.3225 9.97893 74.7952 10.4712 74.7952 11.9959V12.6596C74.7952 12.6596 73.6917 11.8232 71.5572 11.8232C69.0303 11.8232 66.9956 13.4466 66.9956 15.6844C66.9956 18.1689 69.007 19.5949 71.1894 19.5949C73.8134 19.5949 75.0154 17.8247 75.0154 17.8247V19.3001H77.7378V11.6998C77.7378 9.04382 75.7756 7.34635 72.4392 7.34635V7.34765ZM72.096 17.1364C71.1881 17.1364 69.9862 16.8662 69.9862 15.6363C69.9862 14.4064 71.2373 13.9882 72.1452 13.9882C73.7396 13.9882 74.7939 14.5778 74.7939 14.5778V15.7831C74.7939 15.7831 73.8613 17.1364 72.096 17.1364ZM61.9172 19.3014H64.8611V0.707092H61.9172V19.3014ZM53.9466 7.34765C51.5181 7.34765 49.3604 8.40483 49.3604 8.40483L50.3175 10.84C50.3175 10.84 52.1074 9.97893 53.8002 9.97893C54.8299 9.97893 56.3025 10.4712 56.3025 11.9959V12.6596C56.3025 12.6596 55.199 11.8232 53.0646 11.8232C50.5377 11.8232 48.5029 13.4466 48.5029 15.6844C48.5029 18.1689 50.5144 19.5949 52.6968 19.5949C55.3208 19.5949 56.5227 17.8247 56.5227 17.8247V19.3001H59.2452V11.6998C59.2452 9.04382 57.283 7.34635 53.9466 7.34635V7.34765ZM53.6034 17.1364C52.6955 17.1364 51.4935 16.8662 51.4935 15.6363C51.4935 14.4064 52.7447 13.9882 53.6526 13.9882C55.247 13.9882 56.3012 14.5778 56.3012 14.5778V15.7831C56.3012 15.7831 55.3687 17.1364 53.6034 17.1364ZM42.935 16.8416C40.9481 16.8416 39.6724 15.2922 39.6724 13.4726C39.6724 11.653 40.9481 10.1036 42.935 10.1036C44.7016 10.1036 45.6574 11.3335 45.6574 11.3335L47.6935 9.51398C47.6935 9.51398 46.0499 7.34894 42.935 7.34894C39.4522 7.34894 36.6805 10.0296 36.6805 13.4726C36.6805 16.9156 39.4522 19.5962 42.935 19.5962C46.0745 19.5962 47.7427 17.3832 47.7427 17.3832L45.8051 15.4155C45.8051 15.4155 44.9218 16.8416 42.935 16.8416ZM32.4129 14.7999C32.4129 16.2013 30.8923 16.7922 29.421 16.7922C26.8216 16.7922 25.349 14.2103 25.349 14.2103L23.142 16.0792C23.142 16.0792 25.1288 19.5962 29.421 19.5962C32.659 19.5962 35.4061 17.9234 35.4061 14.7999C35.4061 11.6764 33.2237 10.4958 30.5983 9.51138C28.2437 8.62562 26.8941 8.15807 26.8941 6.658C26.8941 5.50211 28.0468 4.59168 29.5182 4.59168C31.6526 4.59168 33.0747 6.53462 33.0747 6.53462L35.1108 4.51765C35.1108 4.51765 33.0993 1.78766 29.5182 1.78766C25.937 1.78766 23.9009 4.22283 23.9009 6.658C23.9009 9.85555 26.7465 11.2322 29.2721 12.118C31.3081 12.831 32.4116 13.3479 32.4116 14.7986L32.4129 14.7999Z" fill="#ECECEC"/>
<path d="M72.3226 24.7523H77.695V23.7601H71.0002V29.5603H77.695V28.5681H72.3226V26.6875H76.5721V25.8459H72.3226V24.751V24.7523ZM60.7294 25.316C60.7294 24.9432 60.9353 24.7523 61.3382 24.7523H66.0151V23.7601H60.8162C59.8824 23.7601 59.407 24.1809 59.407 25.0134V28.3057C59.407 29.1395 59.8824 29.559 60.8162 29.559H66.0151V28.5668H61.3382C60.9341 28.5668 60.7294 28.3836 60.7294 28.0031V25.3134V25.316ZM48.5664 25.316C48.5664 24.9432 48.7723 24.7523 49.1673 24.7523H52.3884C52.7925 24.7523 52.9972 24.9432 52.9972 25.316V26.7602H48.5664V25.316ZM48.6454 23.7614C47.7115 23.7614 47.2453 24.1822 47.2453 25.0147V29.5616H48.5664V27.6018H52.9972V29.5616H54.3183V25.0147C54.3183 24.1809 53.8429 23.7614 52.9091 23.7614H48.6441H48.6454ZM35.2713 29.5616H36.5924V27.6096H40.7305C41.7744 27.6096 42.2899 27.1407 42.2899 26.1965V25.1731C42.2899 24.2289 41.7757 23.7601 40.7305 23.7601H35.27V29.5603L35.2713 29.5616ZM40.9843 26.0147C40.9843 26.4433 40.7629 26.6498 40.3121 26.6498H36.5924V24.7536H40.3121C40.7629 24.7536 40.9843 24.9601 40.9843 25.3887V26.016V26.0147ZM25.3787 25.8485C25.0381 25.8485 24.8567 25.7134 24.8567 25.4524V25.1355C24.8567 24.8809 25.0394 24.7549 25.3787 24.7549H30.0634V23.7627H24.9591C24.0252 23.7627 23.559 24.151 23.559 24.929V25.5238C23.559 26.3017 24.0252 26.6901 24.9591 26.6901H28.2669C28.7332 26.6901 28.9715 26.9044 28.9715 27.333V27.9356C28.9715 28.3564 28.7345 28.5707 28.2669 28.5707H23.5745V29.5629H28.6866C29.7473 29.5629 30.2771 29.0954 30.2771 28.1499V27.2615C30.2771 26.3173 29.7473 25.8485 28.6866 25.8485H25.3787Z" fill="#ECECEC"/>
<path d="M17.8434 2.08118V2.76302L17.846 3.43838L17.8485 4.10464L17.8498 4.8852C17.8524 5.9294 17.5442 6.91775 17.0054 7.74636C16.9277 7.86455 16.8461 7.98014 16.7593 8.09183C16.7153 8.14768 16.6725 8.20352 16.6259 8.25547C15.9446 9.0659 15.0134 9.67112 13.9306 9.94516L0.0579162 13.4622V12.7803L0.0553253 12.105L0.0527344 11.4387V10.8335V10.6582C0.0527344 10.6582 0.0527344 10.6504 0.0527344 10.6478C0.0527344 10.5322 0.0566214 10.4179 0.0643925 10.3049C0.0669829 10.2867 0.0669827 10.2685 0.0682779 10.2504C0.0773442 10.1387 0.0890014 10.027 0.103248 9.91659C0.105839 9.8971 0.109723 9.87762 0.113608 9.85814C0.12915 9.74645 0.149873 9.63735 0.174482 9.52826C0.175777 9.51397 0.180959 9.50098 0.183549 9.4867C0.236652 9.25682 0.304001 9.03343 0.385597 8.81654C0.390778 8.80355 0.394664 8.79056 0.399844 8.77887C0.439995 8.67497 0.482736 8.57237 0.529363 8.47107C0.541019 8.44639 0.552676 8.42042 0.569513 8.39314C0.62132 8.31262 0.658881 8.2243 0.697737 8.13599C0.704213 8.1204 0.714575 8.10612 0.722346 8.09183C0.811713 7.93208 0.910146 7.77623 1.01635 7.62558C1.01635 7.62558 1.01894 7.62428 1.01894 7.62168C1.21192 7.35024 1.43081 7.09828 1.67301 6.8671C1.67819 6.86191 1.68337 6.85671 1.68985 6.85022C1.73129 6.81255 1.77274 6.77619 1.81418 6.73852C1.82325 6.72943 1.83232 6.72164 1.84138 6.71385C1.88153 6.67878 1.92428 6.64372 1.96443 6.60995C1.97608 6.60086 1.98774 6.59176 1.9981 6.58397C2.04084 6.5502 2.08099 6.51773 2.12373 6.48656C2.13539 6.47747 2.14705 6.46838 2.1587 6.46059C2.20144 6.42942 2.24548 6.39695 2.28822 6.36708C2.29988 6.35929 2.31154 6.3502 2.32319 6.3437C2.36723 6.31253 2.41385 6.28266 2.45918 6.25409C2.46955 6.24759 2.47991 6.2385 2.49156 6.23201C2.53949 6.20344 2.58611 6.17356 2.63404 6.14629C2.6431 6.14109 2.65346 6.1346 2.66382 6.12941C2.71304 6.10083 2.76355 6.07226 2.81407 6.04628C2.82184 6.04109 2.82961 6.03849 2.83867 6.0333C2.89178 6.00602 2.94617 5.97875 3.00057 5.95277C3.00575 5.95018 3.00964 5.94758 3.01482 5.94628C3.3166 5.80082 3.6378 5.68393 3.97196 5.59951L17.8447 2.08377L17.8434 2.08118Z" fill="white"/>
<path d="M17.8434 10.7958V11.4777L17.846 12.153L17.8485 12.8193L17.8498 13.5999C17.8524 14.6441 17.5442 15.6324 17.0054 16.461C16.9277 16.5792 16.8461 16.6948 16.7593 16.8065C16.7153 16.8623 16.6725 16.9182 16.6259 16.9701C15.9446 17.7806 15.0134 18.3858 13.9306 18.6598L0.0579162 22.1769V21.495L0.0553253 20.8197L0.0527344 20.1534V19.5482V19.3728C0.0527344 19.3728 0.0527344 19.365 0.0527344 19.3624C0.0527344 19.2469 0.0566214 19.1326 0.0643925 19.0196C0.0669829 19.0014 0.0669827 18.9832 0.0682779 18.965C0.0773442 18.8533 0.0890014 18.7416 0.103248 18.6312C0.105839 18.6118 0.109723 18.5923 0.113608 18.5728C0.12915 18.4611 0.149873 18.352 0.174482 18.2429C0.175777 18.2286 0.180959 18.2156 0.183549 18.2014C0.236652 17.9715 0.304001 17.7481 0.385597 17.5312C0.390778 17.5182 0.394664 17.5052 0.399844 17.4935C0.439995 17.3896 0.482736 17.287 0.529363 17.1857C0.541019 17.1611 0.552676 17.1351 0.569513 17.1078C0.62132 17.0273 0.658881 16.939 0.697737 16.8506C0.704213 16.8351 0.714575 16.8208 0.722346 16.8065C0.811713 16.6467 0.910146 16.4909 1.01635 16.3402C1.01635 16.3402 1.01894 16.3389 1.01894 16.3363C1.21192 16.0649 1.43081 15.8129 1.67301 15.5818C1.67819 15.5766 1.68337 15.5714 1.68985 15.5649C1.73129 15.5272 1.77274 15.4908 1.81418 15.4532C1.82325 15.4441 1.83232 15.4363 1.84138 15.4285C1.88153 15.3934 1.92428 15.3584 1.96443 15.3246C1.97608 15.3155 1.98774 15.3064 1.9981 15.2986C2.04084 15.2649 2.08099 15.2324 2.12373 15.2012C2.13539 15.1921 2.14705 15.183 2.1587 15.1753C2.20144 15.1441 2.24548 15.1116 2.28822 15.0817C2.29988 15.0739 2.31154 15.0649 2.32319 15.0584C2.36723 15.0272 2.41385 14.9973 2.45918 14.9687C2.46955 14.9623 2.47991 14.9532 2.49156 14.9467C2.53949 14.9181 2.58611 14.8882 2.63404 14.861C2.6431 14.8558 2.65346 14.8493 2.66382 14.8441C2.71304 14.8155 2.76355 14.7869 2.81407 14.7609C2.82184 14.7558 2.82961 14.7532 2.83867 14.748C2.89178 14.7207 2.94617 14.6934 3.00057 14.6674C3.00575 14.6648 3.00964 14.6622 3.01482 14.6609C3.3166 14.5155 3.6378 14.3986 3.97196 14.3142L17.8447 10.7984L17.8434 10.7958Z" fill="white"/>
<path d="M17.8434 19.5261V20.208L17.846 20.8833L17.8485 21.5496L17.8498 22.3301C17.8524 23.3743 17.5442 24.3627 17.0054 25.1913C16.9277 25.3095 16.8461 25.4251 16.7593 25.5368C16.7153 25.5926 16.6725 25.6485 16.6259 25.7004C15.9446 26.5108 15.0134 27.1161 13.9306 27.3901L0.0579162 30.9071V30.2253L0.0553253 29.5499L0.0527344 28.8837V28.2785V28.1031C0.0527344 28.1031 0.0527344 28.0953 0.0527344 28.0927C0.0527344 27.9771 0.0566214 27.8629 0.0643925 27.7499C0.0669829 27.7317 0.0669827 27.7135 0.0682779 27.6953C0.0773442 27.5836 0.0890014 27.4719 0.103248 27.3615C0.105839 27.3421 0.109723 27.3226 0.113608 27.3031C0.12915 27.1914 0.149873 27.0823 0.174482 26.9732C0.175777 26.9589 0.180959 26.9459 0.183549 26.9316C0.236652 26.7018 0.304001 26.4784 0.385597 26.2615C0.390778 26.2485 0.394664 26.2355 0.399844 26.2238C0.439995 26.1199 0.482736 26.0173 0.529363 25.916C0.541019 25.8913 0.552676 25.8654 0.569513 25.8381C0.62132 25.7576 0.658881 25.6693 0.697737 25.5809C0.704213 25.5654 0.714575 25.5511 0.722346 25.5368C0.811713 25.377 0.910146 25.2212 1.01635 25.0705C1.01635 25.0705 1.01894 25.0692 1.01894 25.0666C1.21192 24.7952 1.43081 24.5432 1.67301 24.312C1.67819 24.3069 1.68337 24.3017 1.68985 24.2952C1.73129 24.2575 1.77274 24.2211 1.81418 24.1835C1.82325 24.1744 1.83232 24.1666 1.84138 24.1588C1.88153 24.1237 1.92428 24.0887 1.96443 24.0549C1.97608 24.0458 1.98774 24.0367 1.9981 24.0289C2.04084 23.9951 2.08099 23.9627 2.12373 23.9315C2.13539 23.9224 2.14705 23.9133 2.1587 23.9055C2.20144 23.8744 2.24548 23.8419 2.28822 23.812C2.29988 23.8042 2.31154 23.7951 2.32319 23.7886C2.36723 23.7575 2.41385 23.7276 2.45918 23.699C2.46955 23.6925 2.47991 23.6834 2.49156 23.677C2.53949 23.6484 2.58611 23.6185 2.63404 23.5912C2.6431 23.586 2.65346 23.5795 2.66382 23.5744C2.71304 23.5458 2.76355 23.5172 2.81407 23.4912C2.82184 23.486 2.82961 23.4834 2.83867 23.4782C2.89178 23.451 2.94617 23.4237 3.00057 23.3977C3.00575 23.3951 3.00964 23.3925 3.01482 23.3912C3.3166 23.2458 3.6378 23.1289 3.97196 23.0445L17.8447 19.5287L17.8434 19.5261Z" fill="white"/>
</svg>
