<svg width="132" height="16" viewBox="0 0 132 16" fill="none" xmlns="http://www.w3.org/2000/svg">
<g clip-path="url(#clip0_6_237)">
<path d="M9.04753 0.810791H5.27734V12.8776H9.04753V0.810791Z" fill="#ECECEC"/>
<path d="M35.4386 0.810791H31.6685V12.8776H35.4386V0.810791Z" fill="#ECECEC"/>
<path d="M19.6017 0.810791H15.8315V12.8776H19.6017V0.810791Z" fill="#ECECEC"/>
<path d="M24.8844 3.07397H21.1143V15.1353H24.8844V3.07397Z" fill="#ECECEC"/>
<path d="M30.1613 0.810791H26.3911V12.8776H30.1613V0.810791Z" fill="#ECECEC"/>
<path d="M14.3244 2.69589C14.3244 3.73707 13.4805 4.58098 12.4393 4.58098C11.3981 4.58098 10.5542 3.73707 10.5542 2.69589C10.5542 1.6547 11.3981 0.810791 12.4393 0.810791C13.4805 0.810791 14.3244 1.6547 14.3244 2.69589Z" fill="#ECECEC"/>
<path d="M3.77019 10.987C3.77019 12.0282 2.92628 12.8721 1.8851 12.8721C0.843909 12.8721 0 12.0282 0 10.987C0 9.94584 0.843909 9.10193 1.8851 9.10193C2.92628 9.10193 3.77019 9.94584 3.77019 10.987Z" fill="#ECECEC"/>
<path d="M40.716 10.987C40.716 12.0282 39.8721 12.8721 38.8309 12.8721C37.7897 12.8721 36.9458 12.0282 36.9458 10.987C36.9458 9.94584 37.7897 9.10193 38.8309 9.10193C39.8721 9.10193 40.716 9.94584 40.716 10.987Z" fill="#ECECEC"/>
<path d="M44.9956 9.1458L45.4504 8.60877C46.13 9.22252 46.7766 9.5294 47.6753 9.5294C48.574 9.5294 49.122 9.06361 49.122 8.42245V8.40601C49.122 7.80322 48.7987 7.45799 47.4342 7.17303C45.9382 6.84971 45.2532 6.36748 45.2532 5.29889V5.28245C45.2532 4.26319 46.1519 3.50696 47.3849 3.50696C48.3329 3.50696 49.0069 3.77547 49.67 4.30703L49.2425 4.87146C48.6398 4.37827 48.037 4.16455 47.3684 4.16455C46.5245 4.16455 45.9875 4.63034 45.9875 5.21122V5.22766C45.9875 5.84141 46.3217 6.18664 47.752 6.48804C49.1987 6.80039 49.8673 7.33195 49.8673 8.32381V8.34573C49.8673 9.45816 48.9412 10.1815 47.6479 10.1815C46.6177 10.1815 45.7738 9.83628 44.9956 9.14032V9.1458Z" fill="#ECECEC"/>
<path d="M51.8398 6.86062V6.84418C51.8398 5.05224 53.1879 3.48499 55.1607 3.48499C57.1335 3.48499 58.4651 5.0358 58.4651 6.82774V6.84418C58.4651 8.63612 57.117 10.2034 55.1442 10.2034C53.1715 10.2034 51.8398 8.65256 51.8398 6.86062ZM57.7034 6.86062V6.84418C57.7034 5.37008 56.6293 4.1645 55.1442 4.1645C53.6592 4.1645 52.6016 5.35364 52.6016 6.82774V6.84418C52.6016 8.31828 53.6756 9.52387 55.1607 9.52387C56.6457 9.52387 57.7034 8.33472 57.7034 6.86062Z" fill="#ECECEC"/>
<path d="M60.7888 3.5946H65.4577V4.27412H61.5231V6.59213H65.0412V7.26068H61.5231V10.0938H60.7888V3.5946Z" fill="#ECECEC"/>
<path d="M69.6334 4.27412H67.4524V3.5946H72.5597V4.27412H70.3787V10.0938H69.6389V4.27412H69.6334Z" fill="#ECECEC"/>
<path d="M74.1982 3.59456H74.9983L76.856 9.00873L78.637 3.57812H79.2398L81.0208 9.00873L82.8785 3.59456H83.6511L81.3331 10.1376H80.7139L78.9329 4.86591L77.141 10.1376H76.5272L74.2092 3.59456H74.1982Z" fill="#ECECEC"/>
<path d="M87.3116 3.55078H87.9966L90.9557 10.0938H90.1666L89.4049 8.3786H85.8703L85.0977 10.0938H84.3469L87.3061 3.55078H87.3116ZM89.1199 7.71553L87.6458 4.40017L86.1608 7.71553H89.1199Z" fill="#ECECEC"/>
<path d="M92.7368 3.5946H95.5316C96.3317 3.5946 96.9728 3.83572 97.3783 4.24672C97.6962 4.56455 97.8825 5.01939 97.8825 5.52902V5.54546C97.8825 6.61952 97.1372 7.2552 96.1179 7.44151L98.1126 10.0938H97.2139L95.3288 7.56755H93.4711V10.0938H92.7368V3.5946ZM95.4658 6.90996C96.4413 6.90996 97.1372 6.40581 97.1372 5.57286V5.55642C97.1372 4.75635 96.5234 4.27412 95.4768 4.27412H93.4711V6.90996H95.4658Z" fill="#ECECEC"/>
<path d="M100.759 3.5946H105.456V4.26316H101.494V6.48253H105.039V7.15108H101.494V9.42525H105.505V10.0938H100.765V3.5946H100.759Z" fill="#ECECEC"/>
<path d="M108.25 3.5946H109.79L111.5 6.34005L113.21 3.5946H114.75V10.0938H113.33V5.85233L111.5 8.62518H111.462L109.653 5.87973V10.0938H108.25V3.5946Z" fill="#ECECEC"/>
<path d="M117.144 3.5946H118.575V10.0938H117.144V3.5946Z" fill="#ECECEC"/>
<path d="M127.206 3.5946H128.636V8.78958H131.003V10.0883H127.211V3.5946H127.206Z" fill="#ECECEC"/>
<path d="M121.238 3.5946H122.668V8.78958H125.035V10.0883H121.243V3.5946H121.238Z" fill="#ECECEC"/>
</g>
<defs>
<clipPath id="clip0_6_237">
<rect width="131.003" height="14.3245" fill="white" transform="translate(0 0.810791)"/>
</clipPath>
</defs>
</svg>
