<svg width="75" height="25" viewBox="0 0 235 83" fill="none" xmlns="http://www.w3.org/2000/svg">
    <path d="M52.2613 0H30.4258V69.623H52.2613V0Z" fill="white"></path>
    <path d="M204.574 0H182.738V69.623H204.574V0Z" fill="white"></path>
    <path d="M113.296 0H91.4609V69.623H113.296V0Z" fill="white"></path>
    <path d="M143.718 13.0664H121.883V82.6893H143.718V13.0664Z" fill="white"></path>
    <path d="M174.148 0H152.312V69.623H174.148V0Z" fill="white"></path>
    <path
        d="M82.6871 10.9177C82.6871 17.003 77.8546 21.8355 71.7693 21.8355C65.684 21.8355 60.8516 17.003 60.8516 10.9177C60.8516 4.83245 65.684 0 71.7693 0C77.8546 0 82.6871 4.83245 82.6871 10.9177Z"
        fill="white"></path>
    <path
        d="M21.8355 58.7029C21.8355 64.7882 17.003 69.6207 10.9177 69.6207C4.8324 69.6207 0 64.7882 0 58.7029C0 52.6176 4.8324 47.7852 10.9177 47.7852C16.824 47.7852 21.8355 52.7966 21.8355 58.7029Z"
        fill="white"></path>
    <path
        d="M235 58.7029C235 64.7882 230.167 69.6207 224.082 69.6207C217.997 69.6207 213.164 64.7882 213.164 58.7029C213.164 52.6176 217.997 47.7852 224.082 47.7852C230.167 47.7852 235 52.7966 235 58.7029Z"
        fill="white"></path>
</svg>