<svg xmlns="http://www.w3.org/2000/svg" width="183.465" height="14.333">
    <g fill="#fff">
        <path className="svg__ico" data-name="Path 15"
            d="M0 12.078l.97-1.148a6.6 6.6 0 0 0 4.751 1.959c1.862 0 3.089-.991 3.089-2.356v-.039c0-1.286-.694-2.019-3.6-2.634C2.019 7.166.554 6.138.554 3.861v-.039C.554 1.644 2.475.04 5.106.04a7.238 7.238 0 0 1 4.872 1.7l-.911 1.209a6.089 6.089 0 0 0-4-1.5c-1.8 0-2.947.991-2.947 2.237v.039c0 1.307.711 2.04 3.76 2.694 3.089.672 4.514 1.8 4.514 3.918v.035c0 2.374-1.979 3.92-4.732 3.92A8.108 8.108 0 0 1 0 12.078z">
        </path>
        <path className="svg__ico" data-name="Path 16"
            d="M14.608 7.206v-.04a7.068 7.068 0 1 1 14.136-.039v.039a7.068 7.068 0 1 1-14.136.04zm12.512 0v-.04a5.51 5.51 0 0 0-5.465-5.721 5.445 5.445 0 0 0-5.424 5.683v.039a5.51 5.51 0 0 0 5.465 5.721 5.444 5.444 0 0 0 5.424-5.682z">
        </path>
        <path className="svg__ico" data-name="Path 17"
            d="M33.689.237h9.96v1.445h-8.4v4.949h7.5v1.426h-7.5v6.039h-1.56z"></path>
        <path className="svg__ico" data-name="Path 18" d="M52.558 1.682h-4.653V.237h10.89v1.445h-4.654v12.413h-1.583z">
        </path>
        <path className="svg__ico" data-name="Path 19"
            d="M62.294.238h1.7l3.959 11.543L71.757.199h1.289l3.8 11.582L80.806.238h1.643l-4.95 13.956h-1.326l-3.8-11.244-3.822 11.244h-1.307z">
        </path>
        <path className="svg__ico" data-name="Path 20"
            d="M90.265.138h1.465l6.316 13.958h-1.682l-1.625-3.662h-7.543l-1.643 3.662h-1.6zm3.861 8.889l-3.149-7.069-3.168 7.069z">
        </path>
        <path className="svg__ico" data-name="Path 21"
            d="M101.838.237h5.959a5.457 5.457 0 0 1 3.939 1.386 3.834 3.834 0 0 1 1.07 2.732v.04c0 2.3-1.584 3.642-3.763 4.039l4.257 5.662h-1.92l-4.019-5.386h-3.964v5.386h-1.56V.237zm5.821 7.069c2.078 0 3.563-1.07 3.563-2.852v-.039c0-1.7-1.306-2.733-3.543-2.733h-4.276v5.624z">
        </path>
        <path className="svg__ico" data-name="Path 22"
            d="M118.949.237h10.018v1.427h-8.454v4.73h7.563v1.425h-7.563v4.852h8.552v1.424h-10.116z"></path>
        <path className="svg__ico" data-name="Path 23"
            d="M134.939.237h3.285l3.642 5.86 3.645-5.86h3.285v13.858h-3.033V5.048l-3.9 5.92h-.078l-3.862-5.86v8.988h-2.988V.237z">
        </path>
        <path className="svg__ico" data-name="Path 24" d="M153.901.237h3.049v13.858h-3.049z"></path>
        <path className="svg__ico" data-name="Path 25" d="M175.37.237h3.048v11.087h5.047v2.772h-8.095z"></path>
        <path className="svg__ico" data-name="Path 26" d="M162.635.237h3.048v11.087h5.047v2.772h-8.095z"></path>
    </g>
</svg>