<svg width="200" height="200" viewBox="0 0 18 29" fill="none" xmlns="http://www.w3.org/2000/svg">
<path d="M17.8434 0.0812988V0.763147L17.846 1.4385L17.8485 2.10476L17.8498 2.88532C17.8524 3.92952 17.5442 4.91787 17.0054 5.74648C16.9277 5.86467 16.8461 5.98026 16.7593 6.09195C16.7153 6.1478 16.6725 6.20365 16.6259 6.2556C15.9446 7.06602 15.0134 7.67124 13.9306 7.94528L0.0579162 11.4623V10.7805L0.0553253 10.1051L0.0527344 9.43885V8.83363V8.6583C0.0527344 8.6583 0.0527344 8.65051 0.0527344 8.64791C0.0527344 8.53232 0.0566214 8.41803 0.0643925 8.30504C0.0669829 8.28685 0.0669827 8.26867 0.0682779 8.25049C0.0773442 8.13879 0.0890014 8.0271 0.103248 7.91671C0.105839 7.89723 0.109723 7.87774 0.113608 7.85826C0.12915 7.74657 0.149873 7.63747 0.174482 7.52838C0.175777 7.51409 0.180959 7.5011 0.183549 7.48682C0.236652 7.25694 0.304001 7.03355 0.385597 6.81666C0.390778 6.80367 0.394664 6.79068 0.399844 6.779C0.439995 6.67509 0.482736 6.57249 0.529363 6.47119C0.541019 6.44651 0.552676 6.42054 0.569513 6.39326C0.62132 6.31274 0.658881 6.22443 0.697737 6.13611C0.704213 6.12052 0.714575 6.10624 0.722346 6.09195C0.811713 5.9322 0.910146 5.77635 1.01635 5.6257C1.01635 5.6257 1.01894 5.6244 1.01894 5.6218C1.21192 5.35036 1.43081 5.0984 1.67301 4.86722C1.67819 4.86203 1.68337 4.85683 1.68985 4.85034C1.73129 4.81267 1.77274 4.77631 1.81418 4.73865C1.82325 4.72955 1.83232 4.72176 1.84138 4.71397C1.88153 4.6789 1.92428 4.64384 1.96443 4.61007C1.97608 4.60098 1.98774 4.59189 1.9981 4.58409C2.04084 4.55032 2.08099 4.51786 2.12373 4.48669C2.13539 4.47759 2.14705 4.4685 2.1587 4.46071C2.20144 4.42954 2.24548 4.39707 2.28822 4.3672C2.29988 4.35941 2.31154 4.35032 2.32319 4.34382C2.36723 4.31265 2.41385 4.28278 2.45918 4.25421C2.46955 4.24771 2.47991 4.23862 2.49156 4.23213C2.53949 4.20356 2.58611 4.17369 2.63404 4.14641C2.6431 4.14122 2.65346 4.13472 2.66382 4.12953C2.71304 4.10095 2.76355 4.07238 2.81407 4.04641C2.82184 4.04121 2.82961 4.03862 2.83867 4.03342C2.89178 4.00615 2.94617 3.97887 3.00057 3.9529C3.00575 3.9503 3.00964 3.9477 3.01482 3.9464C3.3166 3.80094 3.6378 3.68405 3.97196 3.59964L17.8447 0.0838959L17.8434 0.0812988Z" fill="url(#paint0_radial_126_2)"/>
<path d="M17.8485 2.10587C17.8485 2.10587 17.8485 2.11496 17.8485 2.12275L17.8511 2.88512C17.8511 2.88512 17.8511 2.89421 17.8511 2.89811C17.8511 2.94487 17.8511 2.99292 17.8485 3.03968C17.8472 3.06175 17.8459 3.08383 17.8459 3.10591C17.8459 3.11241 17.8459 3.1163 17.8459 3.1228C17.8433 3.15397 17.8433 3.18644 17.8407 3.2189C17.8394 3.24228 17.8381 3.26566 17.8368 3.28904C17.833 3.328 17.8304 3.36696 17.8252 3.40593C17.8252 3.41632 17.8252 3.42801 17.8226 3.4384C17.8187 3.47216 17.8148 3.50593 17.8109 3.5397C17.8058 3.57866 17.8006 3.61762 17.7941 3.65529C17.7928 3.66698 17.7902 3.68126 17.7876 3.69425C17.7824 3.73581 17.776 3.77477 17.7669 3.81763C17.7669 3.82413 17.7656 3.82932 17.7643 3.83581C17.763 3.8462 17.7604 3.85919 17.7578 3.87218C17.7488 3.92543 17.7371 3.97868 17.7268 4.03193C17.7125 4.09297 17.6983 4.15531 17.6814 4.21505C17.6659 4.27609 17.649 4.33844 17.6309 4.39688C17.6115 4.46571 17.5882 4.53325 17.5662 4.60078V4.60208C17.5454 4.66182 17.5234 4.72027 17.5001 4.77871C17.4807 4.83066 17.4587 4.88132 17.4392 4.93197C17.4353 4.93976 17.4315 4.94885 17.4276 4.95664C17.4159 4.98652 17.403 5.01639 17.39 5.04496C17.3693 5.09042 17.3486 5.13457 17.3265 5.18003C17.324 5.18652 17.3214 5.19302 17.3162 5.19821C17.2903 5.25146 17.2618 5.30471 17.2346 5.35666C17.2216 5.38004 17.2087 5.40472 17.197 5.42679C17.1711 5.47485 17.1452 5.51901 17.1167 5.56446C17.1128 5.57615 17.1051 5.58654 17.0986 5.59563C17.096 5.60083 17.0921 5.60602 17.0895 5.61122C17.0688 5.64628 17.0481 5.67875 17.0261 5.71252C17.0196 5.72421 17.0118 5.7333 17.0066 5.74369C16.9976 5.75798 16.9885 5.77226 16.9794 5.78655C16.9496 5.83071 16.9186 5.87746 16.8875 5.92032C16.8473 5.97747 16.8046 6.03461 16.7618 6.09046C16.7411 6.11773 16.7191 6.14501 16.6958 6.17358C16.6751 6.20085 16.6518 6.22683 16.6297 6.2554H16.6284C16.5831 6.30995 16.5365 6.3632 16.4886 6.41515C16.4419 6.4671 16.394 6.51905 16.3435 6.5697C16.3021 6.60996 16.2619 6.64893 16.2192 6.68919C16.1712 6.73335 16.1233 6.7801 16.0715 6.82166C16.0469 6.84374 16.0223 6.86452 15.9951 6.8866C15.9873 6.89439 15.9783 6.90088 15.9692 6.90738C15.9394 6.93465 15.9083 6.95803 15.8785 6.98141C15.8656 6.9931 15.85 7.00479 15.8371 7.01388C15.7995 7.04375 15.7594 7.07362 15.7218 7.10219C15.705 7.11518 15.6868 7.12687 15.67 7.13856C15.6221 7.17492 15.5716 7.20869 15.5211 7.24116C15.4628 7.28142 15.4019 7.32038 15.3397 7.35675C15.2789 7.39441 15.2154 7.42948 15.1519 7.46455C15.1027 7.49182 15.0535 7.5178 15.003 7.54377C14.9797 7.55546 14.9564 7.56715 14.9318 7.57754C14.8761 7.60481 14.8204 7.63209 14.7634 7.65676H14.7621C14.696 7.68663 14.63 7.71391 14.5613 7.73988C14.5005 7.76456 14.437 7.78794 14.3735 7.81132C14.3632 7.81521 14.3502 7.81911 14.3399 7.823C14.2777 7.84508 14.2142 7.86586 14.1495 7.88405L14.1339 7.88794C14.0666 7.90742 13.9992 7.92691 13.9306 7.94379L3.0601 10.6985V10.3244L3.05751 9.9192C3.05104 7.52948 4.66743 5.44238 6.38743 5.0073L17.8459 2.10327L17.8485 2.10587Z" fill="url(#paint1_linear_126_2)"/>
<path opacity="0.6" d="M3.06269 10.7025L0.0604522 11.4636L0.0578613 11.0882L3.06009 10.3271L3.06139 10.7012L3.06269 10.7025Z" fill="url(#paint2_linear_126_2)"/>
<path opacity="0.75" d="M17.8485 2.10474C17.8485 2.10474 17.8485 2.11383 17.8485 2.12162V2.54502L6.65293 5.3828C4.94069 5.81659 3.06915 7.95045 3.06009 10.3259V9.92196C3.05232 7.53095 4.67 5.44514 6.39 5.00876L17.8485 2.10474Z" fill="url(#paint3_linear_126_2)"/>
<path opacity="0.5" d="M17.8499 2.10456V2.88381C17.8499 2.88381 17.8499 2.89291 17.8512 2.8968C17.8512 2.9007 17.8512 2.90589 17.8512 2.90979C17.8512 2.95265 17.8499 2.99551 17.8486 3.03837C17.8473 3.06045 17.846 3.08252 17.846 3.1046C17.846 3.1111 17.846 3.11499 17.846 3.12149C17.8434 3.15266 17.8434 3.18513 17.8408 3.2176C17.8395 3.24097 17.8382 3.26435 17.8369 3.28773C17.8356 3.29422 17.8356 3.29942 17.8343 3.30591C17.8317 3.33838 17.8304 3.37215 17.8253 3.40332C17.8253 3.41371 17.8253 3.4254 17.8227 3.43579C17.8188 3.46955 17.8149 3.50332 17.811 3.53709C17.8058 3.57605 17.8007 3.61502 17.7942 3.65268C17.7929 3.66437 17.7903 3.67866 17.7877 3.69164C17.7825 3.7332 17.7761 3.77217 17.767 3.81502C17.767 3.82152 17.7657 3.82671 17.7644 3.83321C17.7631 3.8436 17.7605 3.85658 17.7579 3.86957C17.7489 3.92282 17.7372 3.97607 17.7268 4.02932C17.7126 4.09036 17.6983 4.1527 17.6815 4.21244C17.666 4.27349 17.6491 4.33583 17.631 4.39427C17.6142 4.45401 17.5947 4.51376 17.5753 4.5735C17.5714 4.58129 17.5688 4.59038 17.5662 4.59818V4.59948C17.5507 4.64623 17.5339 4.69169 17.5157 4.73844C17.5105 4.75143 17.5067 4.76442 17.5002 4.77611C17.4808 4.82806 17.4587 4.87871 17.4393 4.92936C17.4354 4.93715 17.4315 4.94624 17.4276 4.95404C17.416 4.98391 17.403 5.01378 17.3901 5.04235C17.3694 5.08781 17.3486 5.13197 17.3266 5.17742C17.324 5.18392 17.3214 5.19041 17.3163 5.19561C17.3085 5.21249 17.3007 5.22807 17.2929 5.24366C17.2865 5.25665 17.2774 5.27093 17.2722 5.28262C17.2606 5.306 17.2476 5.33068 17.2347 5.35405C17.2217 5.37743 17.2088 5.40211 17.1971 5.42419C17.1712 5.47224 17.1453 5.5164 17.1168 5.56186C17.1129 5.57355 17.1051 5.58393 17.0987 5.59303C17.0961 5.59822 17.0922 5.60341 17.0896 5.60861C17.0689 5.64368 17.0482 5.67615 17.0261 5.70991C17.0197 5.7216 17.0119 5.73069 17.0067 5.74108C16.9976 5.75537 16.9886 5.76966 16.9795 5.78394C16.9497 5.8281 16.9186 5.87486 16.8876 5.91772C16.8474 5.97486 16.8047 6.03201 16.7619 6.08785C16.7412 6.11513 16.7192 6.1424 16.6959 6.17097C16.6751 6.19825 16.6518 6.22422 16.6298 6.25279H16.6285C16.5858 6.30345 16.543 6.3528 16.499 6.40215C16.4951 6.40605 16.4925 6.40994 16.4886 6.41254C16.4485 6.4567 16.4083 6.50086 16.3669 6.54372C16.3578 6.55021 16.3513 6.5593 16.3436 6.56709C16.3021 6.60736 16.262 6.64632 16.2192 6.68658C16.1713 6.73074 16.1234 6.77749 16.0716 6.81905C16.047 6.84113 16.0224 6.86191 15.9952 6.88399C15.9874 6.89178 15.9783 6.89828 15.9693 6.90477C15.9524 6.92036 15.9356 6.93334 15.9188 6.94893C15.9058 6.95932 15.8916 6.97101 15.8786 6.9801C15.8657 6.99179 15.8501 7.00348 15.8372 7.01257C15.8126 7.03335 15.7866 7.05153 15.7607 7.07101C15.7478 7.0801 15.7348 7.09049 15.7206 7.10088C15.7038 7.11387 15.6856 7.12556 15.6688 7.13725C15.6494 7.15283 15.6286 7.16712 15.6092 7.18011C15.6066 7.184 15.6027 7.18401 15.5988 7.1866C15.5729 7.20479 15.547 7.22297 15.5198 7.23855C15.5095 7.24894 15.4965 7.25673 15.4836 7.26453C15.4357 7.2957 15.389 7.32557 15.3385 7.35414C15.3087 7.37232 15.2789 7.39051 15.2479 7.40739H15.2466C15.2155 7.42557 15.1844 7.44376 15.152 7.46194C15.1028 7.48921 15.0536 7.51519 15.0031 7.54116C14.9797 7.55285 14.9564 7.56454 14.9318 7.57493C14.8761 7.60221 14.8204 7.62948 14.7635 7.65415H14.7622C14.7155 7.67493 14.6689 7.69571 14.621 7.7152C14.6016 7.72299 14.5821 7.73078 14.5614 7.73728C14.5498 7.74377 14.5368 7.74767 14.5238 7.75286C14.4915 7.76585 14.4591 7.77754 14.4267 7.78923C14.4086 7.79572 14.3904 7.80221 14.3723 7.80871C14.3619 7.8126 14.349 7.8165 14.3386 7.8204C14.2765 7.84248 14.213 7.86326 14.1482 7.88144L14.1327 7.88534C14.0654 7.90482 3.06018 10.6958 3.06018 10.6958V10.3218L13.8944 7.57623C13.9617 7.55935 14.0291 7.54116 14.0964 7.52038C14.1962 7.49051 14.2946 7.45804 14.3917 7.42168C14.4228 7.41129 14.4565 7.3996 14.4863 7.38531C14.52 7.37362 14.551 7.36194 14.5821 7.34765C14.678 7.30999 14.7699 7.26713 14.8619 7.22427C14.9241 7.19569 14.9836 7.16582 15.0432 7.13335C15.1637 7.06971 15.2789 7.00348 15.3929 6.93075C15.4473 6.89438 15.5017 6.86061 15.5548 6.82295C15.56 6.82035 15.5652 6.81646 15.5704 6.81386C15.6209 6.77749 15.6727 6.74113 15.7232 6.70346C15.762 6.67489 15.8009 6.64372 15.8398 6.61385C15.8682 6.59177 15.8967 6.56969 15.9239 6.54372C15.9602 6.51514 15.9978 6.48397 16.0327 6.4528C16.0832 6.40735 16.1325 6.36449 16.1791 6.31903C16.227 6.27228 16.2749 6.22682 16.3216 6.18006C16.3643 6.13461 16.407 6.09045 16.4498 6.04629C16.4576 6.0372 16.4653 6.02941 16.4744 6.01902C16.512 5.97746 16.5482 5.9359 16.5845 5.89304C16.5845 5.89044 16.5884 5.88914 16.5897 5.88525C16.613 5.85927 16.6337 5.832 16.657 5.80472C16.7658 5.66835 16.8707 5.52419 16.9679 5.37613C17.0002 5.32808 17.03 5.27743 17.0611 5.22678C17.0676 5.21768 17.0741 5.206 17.0805 5.19561C17.1039 5.15534 17.1272 5.11508 17.1505 5.07352C17.1608 5.05274 17.1725 5.03326 17.1842 5.00988C17.2049 4.97222 17.2243 4.93196 17.245 4.89299C17.2722 4.83845 17.3007 4.7813 17.3266 4.72675C17.3525 4.66961 17.3784 4.61246 17.403 4.55532C17.4302 4.49298 17.4535 4.43064 17.4769 4.367C17.4976 4.31375 17.517 4.2592 17.5339 4.20465C17.5546 4.14491 17.574 4.08517 17.5908 4.02542C17.6103 3.96568 17.6258 3.90464 17.6414 3.8436C17.6556 3.79035 17.6686 3.7358 17.6815 3.67995C17.7204 3.50332 17.7527 3.32669 17.7735 3.14616C17.7773 3.12019 17.7812 3.09292 17.7825 3.06564C17.7864 3.03058 17.7903 2.99291 17.7916 2.95784C17.7955 2.92148 17.7981 2.88382 17.8007 2.84615C17.8032 2.81368 17.8382 2.22534 17.8447 2.11625C17.8447 2.10846 17.8447 2.10326 17.8447 2.09937L17.8499 2.10456Z" fill="url(#paint4_linear_126_2)"/>
<path opacity="0.75" d="M17.8433 0.0812988V0.51898L3.85664 4.06329C2.20787 4.48149 0.173139 6.53483 0.0513916 8.79857V8.6583C0.0513916 8.6583 0.0513916 8.65051 0.0513916 8.64791C0.0513916 8.53232 0.0539822 8.41803 0.0617533 8.30504C0.0643437 8.28556 0.0656387 8.26867 0.0656387 8.24919C0.074705 8.1375 0.085067 8.0258 0.100609 7.91541C0.1032 7.89593 0.108381 7.87645 0.110971 7.85697C0.126513 7.74527 0.145941 7.63488 0.171845 7.52578C0.171845 7.5115 0.17832 7.49721 0.179615 7.48422C0.234013 7.25434 0.300067 7.03096 0.381664 6.81406C0.386844 6.79978 0.390731 6.78939 0.394616 6.7764C0.434767 6.6725 0.476213 6.5712 0.524135 6.46859C0.535791 6.44392 0.546151 6.41924 0.562989 6.39197C0.614796 6.31015 0.653652 6.22313 0.691212 6.13481C0.698983 6.11923 0.70805 6.10494 0.715821 6.09065C0.805189 5.93091 0.903623 5.77506 1.00983 5.6244C1.01242 5.6244 1.01242 5.6218 1.01371 5.6205C1.2067 5.34906 1.42558 5.09711 1.66778 4.86593C1.67296 4.85943 1.67944 4.85554 1.68462 4.84904C1.72606 4.81138 1.76751 4.77501 1.80896 4.73735C1.81673 4.72826 1.82709 4.72176 1.83486 4.71397C1.87501 4.6789 1.91775 4.64384 1.9579 4.61007C1.96956 4.60098 1.98121 4.59189 1.99158 4.5828C2.03432 4.54903 2.07576 4.51656 2.1185 4.48539C2.12887 4.4763 2.14052 4.46721 2.15218 4.45941C2.19492 4.42824 2.24025 4.39578 2.28299 4.3646C2.29335 4.35681 2.30501 4.34902 2.31796 4.34123C2.362 4.31135 2.40863 4.28019 2.45396 4.25291C2.46432 4.24512 2.47597 4.23733 2.48763 4.23083C2.53426 4.20226 2.58218 4.17239 2.6301 4.14511C2.64046 4.13992 2.64953 4.13342 2.65989 4.12823C2.70911 4.09836 2.75962 4.07109 2.81013 4.04381C2.8179 4.03992 2.82567 4.03602 2.83474 4.03082C2.88784 4.00355 2.94095 3.97757 2.99664 3.9503C3.00182 3.9477 3.007 3.94381 3.01089 3.94381C3.31266 3.79964 3.63387 3.68146 3.96932 3.59704L17.842 0.0812988H17.8433Z" fill="url(#paint5_linear_126_2)"/>
<path d="M17.8434 8.7959V9.47775L17.846 10.1531L17.8485 10.8194L17.8498 11.5999C17.8524 12.6441 17.5442 13.6325 17.0054 14.4611C16.9277 14.5793 16.8461 14.6949 16.7593 14.8066C16.7153 14.8624 16.6725 14.9182 16.6259 14.9702C15.9446 15.7806 15.0134 16.3858 13.9306 16.6599L0.0579162 20.1769V19.4951L0.0553253 18.8197L0.0527344 18.1535V17.5482V17.3729C0.0527344 17.3729 0.0527344 17.3651 0.0527344 17.3625C0.0527344 17.2469 0.0566214 17.1326 0.0643925 17.0196C0.0669829 17.0015 0.0669827 16.9833 0.0682779 16.9651C0.0773442 16.8534 0.0890014 16.7417 0.103248 16.6313C0.105839 16.6118 0.109723 16.5923 0.113608 16.5729C0.12915 16.4612 0.149873 16.3521 0.174482 16.243C0.175777 16.2287 0.180959 16.2157 0.183549 16.2014C0.236652 15.9715 0.304001 15.7482 0.385597 15.5313C0.390778 15.5183 0.394664 15.5053 0.399844 15.4936C0.439995 15.3897 0.482736 15.2871 0.529363 15.1858C0.541019 15.1611 0.552676 15.1351 0.569513 15.1079C0.62132 15.0273 0.658881 14.939 0.697737 14.8507C0.704213 14.8351 0.714575 14.8208 0.722346 14.8066C0.811713 14.6468 0.910146 14.491 1.01635 14.3403C1.01635 14.3403 1.01894 14.339 1.01894 14.3364C1.21192 14.065 1.43081 13.813 1.67301 13.5818C1.67819 13.5766 1.68337 13.5714 1.68985 13.5649C1.73129 13.5273 1.77274 13.4909 1.81418 13.4532C1.82325 13.4442 1.83232 13.4364 1.84138 13.4286C1.88153 13.3935 1.92428 13.3584 1.96443 13.3247C1.97608 13.3156 1.98774 13.3065 1.9981 13.2987C2.04084 13.2649 2.08099 13.2325 2.12373 13.2013C2.13539 13.1922 2.14705 13.1831 2.1587 13.1753C2.20144 13.1441 2.24548 13.1117 2.28822 13.0818C2.29988 13.074 2.31154 13.0649 2.32319 13.0584C2.36723 13.0273 2.41385 12.9974 2.45918 12.9688C2.46955 12.9623 2.47991 12.9532 2.49156 12.9467C2.53949 12.9182 2.58611 12.8883 2.63404 12.861C2.6431 12.8558 2.65346 12.8493 2.66382 12.8441C2.71304 12.8156 2.76355 12.787 2.81407 12.761C2.82184 12.7558 2.82961 12.7532 2.83867 12.748C2.89178 12.7207 2.94617 12.6935 3.00057 12.6675C3.00575 12.6649 3.00964 12.6623 3.01482 12.661C3.3166 12.5155 3.6378 12.3987 3.97196 12.3142L17.8447 8.7985L17.8434 8.7959Z" fill="url(#paint6_radial_126_2)"/>
<path d="M17.8485 10.8207C17.8485 10.8207 17.8485 10.8298 17.8485 10.8376L17.8511 11.6C17.8511 11.6 17.8511 11.6091 17.8511 11.613C17.8511 11.6597 17.8511 11.7078 17.8485 11.7545C17.8472 11.7766 17.8459 11.7987 17.8459 11.8208C17.8459 11.8273 17.8459 11.8311 17.8459 11.8376C17.8433 11.8688 17.8433 11.9013 17.8407 11.9338C17.8394 11.9571 17.8381 11.9805 17.8368 12.0039C17.833 12.0428 17.8304 12.0818 17.8252 12.1208C17.8252 12.1312 17.8252 12.1429 17.8226 12.1532C17.8187 12.187 17.8148 12.2208 17.8109 12.2545C17.8058 12.2935 17.8006 12.3325 17.7941 12.3701C17.7928 12.3818 17.7902 12.3961 17.7876 12.4091C17.7824 12.4507 17.776 12.4896 17.7669 12.5325C17.7669 12.539 17.7656 12.5442 17.7643 12.5507C17.763 12.5611 17.7604 12.574 17.7578 12.587C17.7488 12.6403 17.7371 12.6935 17.7268 12.7468C17.7125 12.8078 17.6983 12.8702 17.6814 12.9299C17.6659 12.9909 17.649 13.0533 17.6309 13.1117C17.6115 13.1806 17.5882 13.2481 17.5662 13.3156V13.3169C17.5454 13.3767 17.5234 13.4351 17.5001 13.4936C17.4807 13.5455 17.4587 13.5962 17.4392 13.6468C17.4353 13.6546 17.4315 13.6637 17.4276 13.6715C17.4159 13.7014 17.403 13.7312 17.39 13.7598C17.3693 13.8053 17.3486 13.8494 17.3265 13.8949C17.324 13.9014 17.3214 13.9079 17.3162 13.9131C17.2903 13.9663 17.2618 14.0196 17.2346 14.0715C17.2216 14.0949 17.2087 14.1196 17.197 14.1416C17.1711 14.1897 17.1452 14.2339 17.1167 14.2793C17.1128 14.291 17.1051 14.3014 17.0986 14.3105C17.096 14.3157 17.0921 14.3209 17.0895 14.3261C17.0688 14.3611 17.0481 14.3936 17.0261 14.4274C17.0196 14.4391 17.0118 14.4481 17.0066 14.4585C16.9976 14.4728 16.9885 14.4871 16.9794 14.5014C16.9496 14.5456 16.9186 14.5923 16.8875 14.6352C16.8473 14.6923 16.8046 14.7495 16.7618 14.8053C16.7411 14.8326 16.7191 14.8599 16.6958 14.8884C16.6751 14.9157 16.6518 14.9417 16.6297 14.9702H16.6284C16.5831 15.0248 16.5365 15.078 16.4886 15.13C16.4419 15.1819 16.394 15.2339 16.3435 15.2845C16.3021 15.3248 16.2619 15.3638 16.2192 15.404C16.1712 15.4482 16.1233 15.4949 16.0715 15.5365C16.0469 15.5586 16.0223 15.5794 15.9951 15.6014C15.9873 15.6092 15.9783 15.6157 15.9692 15.6222C15.9394 15.6495 15.9083 15.6729 15.8785 15.6963C15.8656 15.7079 15.85 15.7196 15.8371 15.7287C15.7995 15.7586 15.7594 15.7885 15.7218 15.817C15.705 15.83 15.6868 15.8417 15.67 15.8534C15.6221 15.8898 15.5716 15.9235 15.5211 15.956C15.4628 15.9963 15.4019 16.0352 15.3397 16.0716C15.2789 16.1093 15.2154 16.1443 15.1519 16.1794C15.1027 16.2067 15.0535 16.2326 15.003 16.2586C14.9797 16.2703 14.9564 16.282 14.9318 16.2924C14.8761 16.3197 14.8204 16.3469 14.7634 16.3716H14.7621C14.696 16.4015 14.63 16.4288 14.5613 16.4547C14.5005 16.4794 14.437 16.5028 14.3735 16.5262C14.3632 16.5301 14.3502 16.534 14.3399 16.5378C14.2777 16.5599 14.2142 16.5807 14.1495 16.5989L14.1339 16.6028C14.0666 16.6223 13.9992 16.6417 13.9306 16.6586L3.0601 19.4133V19.0393L3.05751 18.634C3.05104 16.2443 4.66743 14.1572 6.38743 13.7221L17.8459 10.8181L17.8485 10.8207Z" fill="url(#paint7_linear_126_2)"/>
<path opacity="0.6" d="M3.06269 19.4171L0.0604522 20.1782L0.0578613 19.8028L3.06009 19.0417L3.06139 19.4158L3.06269 19.4171Z" fill="url(#paint8_linear_126_2)"/>
<path opacity="0.75" d="M17.8485 10.8193C17.8485 10.8193 17.8485 10.8284 17.8485 10.8362V11.2596L6.65293 14.0974C4.94069 14.5312 3.06915 16.665 3.06009 19.0405V18.6366C3.05232 16.2455 4.67 14.1597 6.39 13.7234L17.8485 10.8193Z" fill="url(#paint9_linear_126_2)"/>
<path opacity="0.5" d="M17.8499 10.8194V11.5987C17.8499 11.5987 17.8499 11.6078 17.8512 11.6116C17.8512 11.6155 17.8512 11.6207 17.8512 11.6246C17.8512 11.6675 17.8499 11.7104 17.8486 11.7532C17.8473 11.7753 17.846 11.7974 17.846 11.8194C17.846 11.8259 17.846 11.8298 17.846 11.8363C17.8434 11.8675 17.8434 11.9 17.8408 11.9324C17.8395 11.9558 17.8382 11.9792 17.8369 12.0026C17.8356 12.0091 17.8356 12.0143 17.8343 12.0208C17.8317 12.0532 17.8304 12.087 17.8253 12.1182C17.8253 12.1286 17.8253 12.1402 17.8227 12.1506C17.8188 12.1844 17.8149 12.2182 17.811 12.2519C17.8058 12.2909 17.8007 12.3299 17.7942 12.3675C17.7929 12.3792 17.7903 12.3935 17.7877 12.4065C17.7825 12.448 17.7761 12.487 17.767 12.5299C17.767 12.5364 17.7657 12.5416 17.7644 12.5481C17.7631 12.5584 17.7605 12.5714 17.7579 12.5844C17.7489 12.6377 17.7372 12.6909 17.7268 12.7442C17.7126 12.8052 17.6983 12.8675 17.6815 12.9273C17.666 12.9883 17.6491 13.0507 17.631 13.1091C17.6142 13.1689 17.5947 13.2286 17.5753 13.2883C17.5714 13.2961 17.5688 13.3052 17.5662 13.313V13.3143C17.5507 13.3611 17.5339 13.4065 17.5157 13.4533C17.5105 13.4663 17.5067 13.4793 17.5002 13.491C17.4808 13.5429 17.4587 13.5936 17.4393 13.6442C17.4354 13.652 17.4315 13.6611 17.4276 13.6689C17.416 13.6988 17.403 13.7286 17.3901 13.7572C17.3694 13.8027 17.3486 13.8468 17.3266 13.8923C17.324 13.8988 17.3214 13.9053 17.3163 13.9105C17.3085 13.9273 17.3007 13.9429 17.2929 13.9585C17.2865 13.9715 17.2774 13.9858 17.2722 13.9975C17.2606 14.0208 17.2476 14.0455 17.2347 14.0689C17.2217 14.0923 17.2088 14.117 17.1971 14.139C17.1712 14.1871 17.1453 14.2312 17.1168 14.2767C17.1129 14.2884 17.1051 14.2988 17.0987 14.3079C17.0961 14.3131 17.0922 14.3183 17.0896 14.3235C17.0689 14.3585 17.0482 14.391 17.0261 14.4248C17.0197 14.4364 17.0119 14.4455 17.0067 14.4559C16.9976 14.4702 16.9886 14.4845 16.9795 14.4988C16.9497 14.5429 16.9186 14.5897 16.8876 14.6326C16.8474 14.6897 16.8047 14.7469 16.7619 14.8027C16.7412 14.83 16.7192 14.8572 16.6959 14.8858C16.6751 14.9131 16.6518 14.9391 16.6298 14.9676H16.6285C16.5858 15.0183 16.543 15.0676 16.499 15.117C16.4951 15.1209 16.4925 15.1248 16.4886 15.1274C16.4485 15.1715 16.4083 15.2157 16.3669 15.2586C16.3578 15.2651 16.3513 15.2741 16.3436 15.2819C16.3021 15.3222 16.262 15.3612 16.2192 15.4014C16.1713 15.4456 16.1234 15.4923 16.0716 15.5339C16.047 15.556 16.0224 15.5768 15.9952 15.5988C15.9874 15.6066 15.9783 15.6131 15.9693 15.6196C15.9524 15.6352 15.9356 15.6482 15.9188 15.6638C15.9058 15.6742 15.8916 15.6859 15.8786 15.6949C15.8657 15.7066 15.8501 15.7183 15.8372 15.7274C15.8126 15.7482 15.7866 15.7664 15.7607 15.7859C15.7478 15.7949 15.7348 15.8053 15.7206 15.8157C15.7038 15.8287 15.6856 15.8404 15.6688 15.8521C15.6494 15.8677 15.6286 15.882 15.6092 15.895C15.6066 15.8988 15.6027 15.8988 15.5988 15.9014C15.5729 15.9196 15.547 15.9378 15.5198 15.9534C15.5095 15.9638 15.4965 15.9716 15.4836 15.9794C15.4357 16.0105 15.389 16.0404 15.3385 16.069C15.3087 16.0872 15.2789 16.1054 15.2479 16.1222H15.2466C15.2155 16.1404 15.1844 16.1586 15.152 16.1768C15.1028 16.2041 15.0536 16.23 15.0031 16.256C14.9797 16.2677 14.9564 16.2794 14.9318 16.2898C14.8761 16.317 14.8204 16.3443 14.7635 16.369H14.7622C14.7155 16.3898 14.6689 16.4106 14.621 16.43C14.6016 16.4378 14.5821 16.4456 14.5614 16.4521C14.5498 16.4586 14.5368 16.4625 14.5238 16.4677C14.4915 16.4807 14.4591 16.4924 14.4267 16.5041C14.4086 16.5106 14.3904 16.5171 14.3723 16.5236C14.3619 16.5274 14.349 16.5313 14.3386 16.5352C14.2765 16.5573 14.213 16.5781 14.1482 16.5963L14.1327 16.6002C14.0654 16.6197 3.06018 19.4107 3.06018 19.4107V19.0366L13.8944 16.2911C13.9617 16.2742 14.0291 16.256 14.0964 16.2352C14.1962 16.2054 14.2946 16.1729 14.3917 16.1365C14.4228 16.1261 14.4565 16.1144 14.4863 16.1002C14.52 16.0885 14.551 16.0768 14.5821 16.0625C14.678 16.0248 14.7699 15.982 14.8619 15.9391C14.9241 15.9105 14.9836 15.8807 15.0432 15.8482C15.1637 15.7846 15.2789 15.7183 15.3929 15.6456C15.4473 15.6092 15.5017 15.5755 15.5548 15.5378C15.56 15.5352 15.5652 15.5313 15.5704 15.5287C15.6209 15.4923 15.6727 15.456 15.7232 15.4183C15.762 15.3897 15.8009 15.3586 15.8398 15.3287C15.8682 15.3066 15.8967 15.2845 15.9239 15.2586C15.9602 15.23 15.9978 15.1988 16.0327 15.1676C16.0832 15.1222 16.1325 15.0793 16.1791 15.0339C16.227 14.9871 16.2749 14.9417 16.3216 14.8949C16.3643 14.8495 16.407 14.8053 16.4498 14.7611C16.4576 14.752 16.4653 14.7443 16.4744 14.7339C16.512 14.6923 16.5482 14.6507 16.5845 14.6079C16.5845 14.6053 16.5884 14.604 16.5897 14.6001C16.613 14.5741 16.6337 14.5468 16.657 14.5196C16.7658 14.3832 16.8707 14.239 16.9679 14.091C17.0002 14.0429 17.03 13.9923 17.0611 13.9416C17.0676 13.9325 17.0741 13.9208 17.0805 13.9105C17.1039 13.8702 17.1272 13.8299 17.1505 13.7884C17.1608 13.7676 17.1725 13.7481 17.1842 13.7247C17.2049 13.6871 17.2243 13.6468 17.245 13.6078C17.2722 13.5533 17.3007 13.4961 17.3266 13.4416C17.3525 13.3845 17.3784 13.3273 17.403 13.2702C17.4302 13.2078 17.4535 13.1455 17.4769 13.0818C17.4976 13.0286 17.517 12.974 17.5339 12.9195C17.5546 12.8598 17.574 12.8 17.5908 12.7403C17.6103 12.6805 17.6258 12.6195 17.6414 12.5584C17.6556 12.5052 17.6686 12.4506 17.6815 12.3948C17.7204 12.2182 17.7527 12.0415 17.7735 11.861C17.7773 11.835 17.7812 11.8078 17.7825 11.7805C17.7864 11.7454 17.7903 11.7078 17.7916 11.6727C17.7955 11.6363 17.7981 11.5987 17.8007 11.561C17.8032 11.5285 17.8382 10.9402 17.8447 10.8311C17.8447 10.8233 17.8447 10.8181 17.8447 10.8142L17.8499 10.8194Z" fill="url(#paint10_linear_126_2)"/>
<path opacity="0.75" d="M17.8433 8.7959V9.23358L3.85664 12.7779C2.20787 13.1961 0.173139 15.2494 0.0513916 17.5132V17.3729C0.0513916 17.3729 0.0513916 17.3651 0.0513916 17.3625C0.0513916 17.2469 0.0539822 17.1326 0.0617533 17.0196C0.0643437 17.0002 0.0656387 16.9833 0.0656387 16.9638C0.074705 16.8521 0.085067 16.7404 0.100609 16.63C0.1032 16.6105 0.108381 16.591 0.110971 16.5716C0.126513 16.4599 0.145941 16.3495 0.171845 16.2404C0.171845 16.2261 0.17832 16.2118 0.179615 16.1988C0.234013 15.9689 0.300067 15.7456 0.381664 15.5287C0.386844 15.5144 0.390731 15.504 0.394616 15.491C0.434767 15.3871 0.476213 15.2858 0.524135 15.1832C0.535791 15.1585 0.546151 15.1338 0.562989 15.1066C0.614796 15.0247 0.653652 14.9377 0.691212 14.8494C0.698983 14.8338 0.70805 14.8195 0.715821 14.8053C0.805189 14.6455 0.903623 14.4897 1.00983 14.339C1.01242 14.339 1.01242 14.3364 1.01371 14.3351C1.2067 14.0637 1.42558 13.8117 1.66778 13.5805C1.67296 13.574 1.67944 13.5701 1.68462 13.5636C1.72606 13.526 1.76751 13.4896 1.80896 13.4519C1.81673 13.4429 1.82709 13.4364 1.83486 13.4286C1.87501 13.3935 1.91775 13.3584 1.9579 13.3247C1.96956 13.3156 1.98121 13.3065 1.99158 13.2974C2.03432 13.2636 2.07576 13.2312 2.1185 13.2C2.12887 13.1909 2.14052 13.1818 2.15218 13.174C2.19492 13.1428 2.24025 13.1104 2.28299 13.0792C2.29335 13.0714 2.30501 13.0636 2.31796 13.0558C2.362 13.026 2.40863 12.9948 2.45396 12.9675C2.46432 12.9597 2.47597 12.9519 2.48763 12.9454C2.53426 12.9169 2.58218 12.887 2.6301 12.8597C2.64046 12.8545 2.64953 12.848 2.65989 12.8428C2.70911 12.813 2.75962 12.7857 2.81013 12.7584C2.8179 12.7545 2.82567 12.7506 2.83474 12.7454C2.88784 12.7181 2.94095 12.6922 2.99664 12.6649C3.00182 12.6623 3.007 12.6584 3.01089 12.6584C3.31266 12.5142 3.63387 12.3961 3.96932 12.3116L17.842 8.7959H17.8433Z" fill="url(#paint11_linear_126_2)"/>
<path d="M17.8434 17.5261V18.208L17.846 18.8833L17.8485 19.5496L17.8498 20.3301C17.8524 21.3743 17.5442 22.3627 17.0054 23.1913C16.9277 23.3095 16.8461 23.4251 16.7593 23.5368C16.7153 23.5926 16.6725 23.6485 16.6259 23.7004C15.9446 24.5108 15.0134 25.1161 13.9306 25.3901L0.0579162 28.9071V28.2253L0.0553253 27.5499L0.0527344 26.8837V26.2785V26.1031C0.0527344 26.1031 0.0527344 26.0953 0.0527344 26.0927C0.0527344 25.9771 0.0566214 25.8629 0.0643925 25.7499C0.0669829 25.7317 0.0669827 25.7135 0.0682779 25.6953C0.0773442 25.5836 0.0890014 25.4719 0.103248 25.3615C0.105839 25.3421 0.109723 25.3226 0.113608 25.3031C0.12915 25.1914 0.149873 25.0823 0.174482 24.9732C0.175777 24.9589 0.180959 24.9459 0.183549 24.9316C0.236652 24.7018 0.304001 24.4784 0.385597 24.2615C0.390778 24.2485 0.394664 24.2355 0.399844 24.2238C0.439995 24.1199 0.482736 24.0173 0.529363 23.916C0.541019 23.8913 0.552676 23.8654 0.569513 23.8381C0.62132 23.7576 0.658881 23.6693 0.697737 23.5809C0.704213 23.5654 0.714575 23.5511 0.722346 23.5368C0.811713 23.377 0.910146 23.2212 1.01635 23.0705C1.01635 23.0705 1.01894 23.0692 1.01894 23.0666C1.21192 22.7952 1.43081 22.5432 1.67301 22.312C1.67819 22.3069 1.68337 22.3017 1.68985 22.2952C1.73129 22.2575 1.77274 22.2211 1.81418 22.1835C1.82325 22.1744 1.83232 22.1666 1.84138 22.1588C1.88153 22.1237 1.92428 22.0887 1.96443 22.0549C1.97608 22.0458 1.98774 22.0367 1.9981 22.0289C2.04084 21.9951 2.08099 21.9627 2.12373 21.9315C2.13539 21.9224 2.14705 21.9133 2.1587 21.9055C2.20144 21.8744 2.24548 21.8419 2.28822 21.812C2.29988 21.8042 2.31154 21.7951 2.32319 21.7887C2.36723 21.7575 2.41385 21.7276 2.45918 21.699C2.46955 21.6925 2.47991 21.6834 2.49156 21.677C2.53949 21.6484 2.58611 21.6185 2.63404 21.5912C2.6431 21.586 2.65346 21.5795 2.66382 21.5744C2.71304 21.5458 2.76355 21.5172 2.81407 21.4912C2.82184 21.486 2.82961 21.4834 2.83867 21.4782C2.89178 21.451 2.94617 21.4237 3.00057 21.3977C3.00575 21.3951 3.00964 21.3925 3.01482 21.3912C3.3166 21.2458 3.6378 21.1289 3.97196 21.0445L17.8447 17.5287L17.8434 17.5261Z" fill="url(#paint12_radial_126_2)"/>
<path d="M17.8485 19.5509C17.8485 19.5509 17.8485 19.56 17.8485 19.5678L17.8511 20.3302C17.8511 20.3302 17.8511 20.3393 17.8511 20.3432C17.8511 20.3899 17.8511 20.438 17.8485 20.4847C17.8472 20.5068 17.8459 20.5289 17.8459 20.551C17.8459 20.5575 17.8459 20.5614 17.8459 20.5679C17.8433 20.599 17.8433 20.6315 17.8407 20.664C17.8394 20.6874 17.8381 20.7107 17.8368 20.7341C17.833 20.7731 17.8304 20.812 17.8252 20.851C17.8252 20.8614 17.8252 20.8731 17.8226 20.8835C17.8187 20.9172 17.8148 20.951 17.8109 20.9848C17.8058 21.0237 17.8006 21.0627 17.7941 21.1004C17.7928 21.112 17.7902 21.1263 17.7876 21.1393C17.7824 21.1809 17.776 21.2198 17.7669 21.2627C17.7669 21.2692 17.7656 21.2744 17.7643 21.2809C17.763 21.2913 17.7604 21.3043 17.7578 21.3172C17.7488 21.3705 17.7371 21.4237 17.7268 21.477C17.7125 21.538 17.6983 21.6004 17.6814 21.6601C17.6659 21.7212 17.649 21.7835 17.6309 21.8419C17.6115 21.9108 17.5882 21.9783 17.5662 22.0459V22.0471C17.5454 22.1069 17.5234 22.1653 17.5001 22.2238C17.4807 22.2757 17.4587 22.3264 17.4392 22.377C17.4353 22.3848 17.4315 22.3939 17.4276 22.4017C17.4159 22.4316 17.403 22.4615 17.39 22.49C17.3693 22.5355 17.3486 22.5796 17.3265 22.6251C17.324 22.6316 17.3214 22.6381 17.3162 22.6433C17.2903 22.6965 17.2618 22.7498 17.2346 22.8017C17.2216 22.8251 17.2087 22.8498 17.197 22.8719C17.1711 22.9199 17.1452 22.9641 17.1167 23.0095C17.1128 23.0212 17.1051 23.0316 17.0986 23.0407C17.096 23.0459 17.0921 23.0511 17.0895 23.0563C17.0688 23.0914 17.0481 23.1238 17.0261 23.1576C17.0196 23.1693 17.0118 23.1784 17.0066 23.1888C16.9976 23.203 16.9885 23.2173 16.9794 23.2316C16.9496 23.2758 16.9186 23.3225 16.8875 23.3654C16.8473 23.4225 16.8046 23.4797 16.7618 23.5355C16.7411 23.5628 16.7191 23.5901 16.6958 23.6186C16.6751 23.6459 16.6518 23.6719 16.6297 23.7005H16.6284C16.5831 23.755 16.5365 23.8083 16.4886 23.8602C16.4419 23.9122 16.394 23.9641 16.3435 24.0148C16.3021 24.055 16.2619 24.094 16.2192 24.1343C16.1712 24.1784 16.1233 24.2252 16.0715 24.2667C16.0469 24.2888 16.0223 24.3096 15.9951 24.3317C15.9873 24.3395 15.9783 24.346 15.9692 24.3524C15.9394 24.3797 15.9083 24.4031 15.8785 24.4265C15.8656 24.4382 15.85 24.4499 15.8371 24.4589C15.7995 24.4888 15.7594 24.5187 15.7218 24.5473C15.705 24.5602 15.6868 24.5719 15.67 24.5836C15.6221 24.62 15.5716 24.6538 15.5211 24.6862C15.4628 24.7265 15.4019 24.7655 15.3397 24.8018C15.2789 24.8395 15.2154 24.8745 15.1519 24.9096C15.1027 24.9369 15.0535 24.9629 15.003 24.9888C14.9797 25.0005 14.9564 25.0122 14.9318 25.0226C14.8761 25.0499 14.8204 25.0772 14.7634 25.1018H14.7621C14.696 25.1317 14.63 25.159 14.5613 25.185C14.5005 25.2096 14.437 25.233 14.3735 25.2564C14.3632 25.2603 14.3502 25.2642 14.3399 25.2681C14.2777 25.2901 14.2142 25.3109 14.1495 25.3291L14.1339 25.333C14.0666 25.3525 13.9992 25.372 13.9306 25.3889L3.0601 28.1435V27.7695L3.05751 27.3643C3.05104 24.9746 4.66743 22.8874 6.38743 22.4524L17.8459 19.5483L17.8485 19.5509Z" fill="url(#paint13_linear_126_2)"/>
<path opacity="0.6" d="M3.06269 28.1473L0.0604522 28.9084L0.0578613 28.533L3.06009 27.772L3.06139 28.146L3.06269 28.1473Z" fill="url(#paint14_linear_126_2)"/>
<path opacity="0.75" d="M17.8485 19.5496C17.8485 19.5496 17.8485 19.5587 17.8485 19.5664V19.9898L6.65293 22.8276C4.94069 23.2614 3.06915 25.3953 3.06009 27.7707V27.3668C3.05232 24.9758 4.67 22.89 6.39 22.4536L17.8485 19.5496Z" fill="url(#paint15_linear_126_2)"/>
<path opacity="0.5" d="M17.8499 19.5496V20.3289C17.8499 20.3289 17.8499 20.338 17.8512 20.3419C17.8512 20.3458 17.8512 20.351 17.8512 20.3549C17.8512 20.3977 17.8499 20.4406 17.8486 20.4834C17.8473 20.5055 17.846 20.5276 17.846 20.5497C17.846 20.5562 17.846 20.5601 17.846 20.5666C17.8434 20.5977 17.8434 20.6302 17.8408 20.6627C17.8395 20.686 17.8382 20.7094 17.8369 20.7328C17.8356 20.7393 17.8356 20.7445 17.8343 20.751C17.8317 20.7834 17.8304 20.8172 17.8253 20.8484C17.8253 20.8588 17.8253 20.8705 17.8227 20.8809C17.8188 20.9146 17.8149 20.9484 17.811 20.9822C17.8058 21.0211 17.8007 21.0601 17.7942 21.0977C17.7929 21.1094 17.7903 21.1237 17.7877 21.1367C17.7825 21.1783 17.7761 21.2172 17.767 21.2601C17.767 21.2666 17.7657 21.2718 17.7644 21.2783C17.7631 21.2887 17.7605 21.3017 17.7579 21.3146C17.7489 21.3679 17.7372 21.4211 17.7268 21.4744C17.7126 21.5354 17.6983 21.5978 17.6815 21.6575C17.666 21.7186 17.6491 21.7809 17.631 21.8393C17.6142 21.8991 17.5947 21.9588 17.5753 22.0186C17.5714 22.0264 17.5688 22.0355 17.5662 22.0432V22.0445C17.5507 22.0913 17.5339 22.1368 17.5157 22.1835C17.5105 22.1965 17.5067 22.2095 17.5002 22.2212C17.4808 22.2731 17.4587 22.3238 17.4393 22.3744C17.4354 22.3822 17.4315 22.3913 17.4276 22.3991C17.416 22.429 17.403 22.4588 17.3901 22.4874C17.3694 22.5329 17.3486 22.577 17.3266 22.6225C17.324 22.629 17.3214 22.6355 17.3163 22.6407C17.3085 22.6576 17.3007 22.6731 17.2929 22.6887C17.2865 22.7017 17.2774 22.716 17.2722 22.7277C17.2606 22.7511 17.2476 22.7757 17.2347 22.7991C17.2217 22.8225 17.2088 22.8472 17.1971 22.8693C17.1712 22.9173 17.1453 22.9615 17.1168 23.0069C17.1129 23.0186 17.1051 23.029 17.0987 23.0381C17.0961 23.0433 17.0922 23.0485 17.0896 23.0537C17.0689 23.0887 17.0482 23.1212 17.0261 23.155C17.0197 23.1667 17.0119 23.1758 17.0067 23.1862C16.9976 23.2004 16.9886 23.2147 16.9795 23.229C16.9497 23.2732 16.9186 23.3199 16.8876 23.3628C16.8474 23.4199 16.8047 23.4771 16.7619 23.5329C16.7412 23.5602 16.7192 23.5875 16.6959 23.616C16.6751 23.6433 16.6518 23.6693 16.6298 23.6979H16.6285C16.5858 23.7485 16.543 23.7979 16.499 23.8472C16.4951 23.8511 16.4925 23.855 16.4886 23.8576C16.4485 23.9018 16.4083 23.9459 16.3669 23.9888C16.3578 23.9953 16.3513 24.0044 16.3436 24.0122C16.3021 24.0524 16.262 24.0914 16.2192 24.1316C16.1713 24.1758 16.1234 24.2226 16.0716 24.2641C16.047 24.2862 16.0224 24.307 15.9952 24.3291C15.9874 24.3369 15.9783 24.3433 15.9693 24.3498C15.9524 24.3654 15.9356 24.3784 15.9188 24.394C15.9058 24.4044 15.8916 24.4161 15.8786 24.4252C15.8657 24.4369 15.8501 24.4485 15.8372 24.4576C15.8126 24.4784 15.7866 24.4966 15.7607 24.5161C15.7478 24.5252 15.7348 24.5356 15.7206 24.546C15.7038 24.5589 15.6856 24.5706 15.6688 24.5823C15.6494 24.5979 15.6286 24.6122 15.6092 24.6252C15.6066 24.6291 15.6027 24.6291 15.5988 24.6317C15.5729 24.6499 15.547 24.668 15.5198 24.6836C15.5095 24.694 15.4965 24.7018 15.4836 24.7096C15.4357 24.7408 15.389 24.7706 15.3385 24.7992C15.3087 24.8174 15.2789 24.8356 15.2479 24.8525H15.2466C15.2155 24.8706 15.1844 24.8888 15.152 24.907C15.1028 24.9343 15.0536 24.9603 15.0031 24.9862C14.9797 24.9979 14.9564 25.0096 14.9318 25.02C14.8761 25.0473 14.8204 25.0745 14.7635 25.0992H14.7622C14.7155 25.12 14.6689 25.1408 14.621 25.1603C14.6016 25.1681 14.5821 25.1759 14.5614 25.1823C14.5498 25.1888 14.5368 25.1927 14.5238 25.1979C14.4915 25.2109 14.4591 25.2226 14.4267 25.2343C14.4086 25.2408 14.3904 25.2473 14.3723 25.2538C14.3619 25.2577 14.349 25.2616 14.3386 25.2655C14.2765 25.2875 14.213 25.3083 14.1482 25.3265L14.1327 25.3304C14.0654 25.3499 3.06018 28.1409 3.06018 28.1409V27.7669L13.8944 25.0213C13.9617 25.0044 14.0291 24.9862 14.0964 24.9655C14.1962 24.9356 14.2946 24.9031 14.3917 24.8667C14.4228 24.8564 14.4565 24.8447 14.4863 24.8304C14.52 24.8187 14.551 24.807 14.5821 24.7927C14.678 24.7551 14.7699 24.7122 14.8619 24.6693C14.9241 24.6408 14.9836 24.6109 15.0432 24.5784C15.1637 24.5148 15.2789 24.4485 15.3929 24.3758C15.4473 24.3394 15.5017 24.3057 15.5548 24.268C15.56 24.2654 15.5652 24.2615 15.5704 24.2589C15.6209 24.2226 15.6727 24.1862 15.7232 24.1485C15.762 24.12 15.8009 24.0888 15.8398 24.0589C15.8682 24.0368 15.8967 24.0148 15.9239 23.9888C15.9602 23.9602 15.9978 23.929 16.0327 23.8979C16.0832 23.8524 16.1325 23.8096 16.1791 23.7641C16.227 23.7173 16.2749 23.6719 16.3216 23.6251C16.3643 23.5797 16.407 23.5355 16.4498 23.4914C16.4576 23.4823 16.4653 23.4745 16.4744 23.4641C16.512 23.4225 16.5482 23.381 16.5845 23.3381C16.5845 23.3355 16.5884 23.3342 16.5897 23.3303C16.613 23.3043 16.6337 23.2771 16.657 23.2498C16.7658 23.1134 16.8707 22.9693 16.9679 22.8212C17.0002 22.7731 17.03 22.7225 17.0611 22.6718C17.0676 22.6628 17.0741 22.6511 17.0805 22.6407C17.1039 22.6004 17.1272 22.5602 17.1505 22.5186C17.1608 22.4978 17.1725 22.4783 17.1842 22.455C17.2049 22.4173 17.2243 22.377 17.245 22.3381C17.2722 22.2835 17.3007 22.2264 17.3266 22.1718C17.3525 22.1147 17.3784 22.0575 17.403 22.0004C17.4302 21.938 17.4535 21.8757 17.4769 21.8121C17.4976 21.7588 17.517 21.7043 17.5339 21.6497C17.5546 21.59 17.574 21.5302 17.5908 21.4705C17.6103 21.4107 17.6258 21.3497 17.6414 21.2887C17.6556 21.2354 17.6686 21.1809 17.6815 21.125C17.7204 20.9484 17.7527 20.7718 17.7735 20.5912C17.7773 20.5653 17.7812 20.538 17.7825 20.5107C17.7864 20.4756 17.7903 20.438 17.7916 20.4029C17.7955 20.3665 17.7981 20.3289 17.8007 20.2912C17.8032 20.2588 17.8382 19.6704 17.8447 19.5613C17.8447 19.5535 17.8447 19.5483 17.8447 19.5444L17.8499 19.5496Z" fill="url(#paint16_linear_126_2)"/>
<path opacity="0.75" d="M17.8433 17.5261V17.9638L3.85664 21.5081C2.20787 21.9263 0.173139 23.9797 0.0513916 26.2434V26.1031C0.0513916 26.1031 0.0513916 26.0953 0.0513916 26.0927C0.0513916 25.9771 0.0539822 25.8629 0.0617533 25.7499C0.0643437 25.7304 0.0656387 25.7135 0.0656387 25.694C0.074705 25.5823 0.085067 25.4706 0.100609 25.3602C0.1032 25.3408 0.108381 25.3213 0.110971 25.3018C0.126513 25.1901 0.145941 25.0797 0.171845 24.9706C0.171845 24.9563 0.17832 24.942 0.179615 24.929C0.234013 24.6992 0.300067 24.4758 0.381664 24.2589C0.386844 24.2446 0.390731 24.2342 0.394616 24.2212C0.434767 24.1173 0.476213 24.016 0.524135 23.9134C0.535791 23.8887 0.546151 23.8641 0.562989 23.8368C0.614796 23.755 0.653652 23.6679 0.691212 23.5796C0.698983 23.564 0.70805 23.5498 0.715821 23.5355C0.805189 23.3757 0.903623 23.2199 1.00983 23.0692C1.01242 23.0692 1.01242 23.0666 1.01371 23.0653C1.2067 22.7939 1.42558 22.5419 1.66778 22.3107C1.67296 22.3043 1.67944 22.3004 1.68462 22.2939C1.72606 22.2562 1.76751 22.2198 1.80896 22.1822C1.81673 22.1731 1.82709 22.1666 1.83486 22.1588C1.87501 22.1237 1.91775 22.0887 1.9579 22.0549C1.96956 22.0458 1.98121 22.0367 1.99158 22.0276C2.03432 21.9939 2.07576 21.9614 2.1185 21.9302C2.12887 21.9211 2.14052 21.912 2.15218 21.9042C2.19492 21.8731 2.24025 21.8406 2.28299 21.8094C2.29335 21.8016 2.30501 21.7938 2.31796 21.786C2.362 21.7562 2.40863 21.725 2.45396 21.6977C2.46432 21.6899 2.47597 21.6822 2.48763 21.6757C2.53426 21.6471 2.58218 21.6172 2.6301 21.5899C2.64046 21.5847 2.64953 21.5782 2.65989 21.5731C2.70911 21.5432 2.75962 21.5159 2.81013 21.4886C2.8179 21.4847 2.82567 21.4808 2.83474 21.4756C2.88784 21.4484 2.94095 21.4224 2.99664 21.3951C3.00182 21.3925 3.007 21.3886 3.01089 21.3886C3.31266 21.2445 3.63387 21.1263 3.96932 21.0419L17.842 17.5261H17.8433Z" fill="url(#paint17_linear_126_2)"/>
<defs>
<radialGradient id="paint0_radial_126_2" cx="0" cy="0" r="1" gradientUnits="userSpaceOnUse" gradientTransform="translate(19.3561 1.35798) scale(27.5926 27.6687)">
<stop offset="0.15" stop-color="#DD3432"/>
<stop offset="0.29" stop-color="#CE2F2F"/>
<stop offset="0.42" stop-color="#C62D2E"/>
<stop offset="0.62" stop-color="#A12126"/>
<stop offset="0.8" stop-color="#881921"/>
<stop offset="0.91" stop-color="#7F1620"/>
<stop offset="0.95" stop-color="#841721"/>
<stop offset="1" stop-color="#971E26"/>
</radialGradient>
<linearGradient id="paint1_linear_126_2" x1="2.48726" y1="8.42193" x2="18.4276" y2="4.40541" gradientUnits="userSpaceOnUse">
<stop stop-color="#E32D2B"/>
<stop offset="0.09" stop-color="#E02E2C"/>
<stop offset="0.42" stop-color="#DD302E"/>
<stop offset="0.81" stop-color="#DE3D3B"/>
<stop offset="1" stop-color="#E3322F"/>
</linearGradient>
<linearGradient id="paint2_linear_126_2" x1="0.0146802" y1="11.2856" x2="3.10477" y2="10.507" gradientUnits="userSpaceOnUse">
<stop stop-color="#911C24"/>
<stop offset="0.19" stop-color="#82181D"/>
<stop offset="0.79" stop-color="#5B0D0B"/>
</linearGradient>
<linearGradient id="paint3_linear_126_2" x1="2.52915" y1="8.2226" x2="18.3828" y2="4.22792" gradientUnits="userSpaceOnUse">
<stop offset="0.17" stop-color="#E35655"/>
<stop offset="0.73" stop-color="#DD3432"/>
</linearGradient>
<linearGradient id="paint4_linear_126_2" x1="2.48702" y1="8.42066" x2="18.4286" y2="4.40383" gradientUnits="userSpaceOnUse">
<stop stop-color="#E22D2B"/>
<stop offset="0.14" stop-color="#D52D2B"/>
<stop offset="0.28" stop-color="#C62E2C"/>
<stop offset="0.46" stop-color="#B02527"/>
<stop offset="0.6" stop-color="#A72126"/>
<stop offset="0.68" stop-color="#8A191B"/>
<stop offset="0.8" stop-color="#670F0E"/>
<stop offset="0.87" stop-color="#5A0C09"/>
<stop offset="0.93" stop-color="#4C0803"/>
<stop offset="1" stop-color="#430600"/>
</linearGradient>
<linearGradient id="paint5_linear_126_2" x1="-0.446635" y1="6.81988" x2="18.3477" y2="2.08425" gradientUnits="userSpaceOnUse">
<stop offset="0.02" stop-color="#E14A48" stop-opacity="0.3"/>
<stop offset="0.11" stop-color="#E04543" stop-opacity="0.34"/>
<stop offset="0.25" stop-color="#DD3836" stop-opacity="0.46"/>
<stop offset="0.29" stop-color="#DD3432" stop-opacity="0.5"/>
<stop offset="1" stop-color="#C62D2E" stop-opacity="0"/>
</linearGradient>
<radialGradient id="paint6_radial_126_2" cx="0" cy="0" r="1" gradientUnits="userSpaceOnUse" gradientTransform="translate(19.3561 10.0726) scale(27.5926 27.6688)">
<stop offset="0.15" stop-color="#DD3432"/>
<stop offset="0.29" stop-color="#CE2F2F"/>
<stop offset="0.42" stop-color="#C62D2E"/>
<stop offset="0.62" stop-color="#A12126"/>
<stop offset="0.8" stop-color="#881921"/>
<stop offset="0.91" stop-color="#7F1620"/>
<stop offset="0.95" stop-color="#841721"/>
<stop offset="1" stop-color="#971E26"/>
</radialGradient>
<linearGradient id="paint7_linear_126_2" x1="2.48676" y1="17.1362" x2="18.4271" y2="13.1196" gradientUnits="userSpaceOnUse">
<stop stop-color="#E32D2B"/>
<stop offset="0.09" stop-color="#E02E2C"/>
<stop offset="0.42" stop-color="#DD302E"/>
<stop offset="0.81" stop-color="#DE3D3B"/>
<stop offset="1" stop-color="#E3322F"/>
</linearGradient>
<linearGradient id="paint8_linear_126_2" x1="0.0141806" y1="19.9996" x2="3.10427" y2="19.221" gradientUnits="userSpaceOnUse">
<stop stop-color="#911C24"/>
<stop offset="0.19" stop-color="#82181D"/>
<stop offset="0.79" stop-color="#5B0D0B"/>
</linearGradient>
<linearGradient id="paint9_linear_126_2" x1="2.52897" y1="16.9378" x2="18.3826" y2="12.9432" gradientUnits="userSpaceOnUse">
<stop offset="0.17" stop-color="#E35655"/>
<stop offset="0.73" stop-color="#DD3432"/>
</linearGradient>
<linearGradient id="paint10_linear_126_2" x1="2.48652" y1="17.1349" x2="18.4281" y2="13.1181" gradientUnits="userSpaceOnUse">
<stop stop-color="#E22D2B"/>
<stop offset="0.14" stop-color="#D52D2B"/>
<stop offset="0.28" stop-color="#C62E2C"/>
<stop offset="0.46" stop-color="#B02527"/>
<stop offset="0.6" stop-color="#A72126"/>
<stop offset="0.68" stop-color="#8A191B"/>
<stop offset="0.8" stop-color="#670F0E"/>
<stop offset="0.87" stop-color="#5A0C09"/>
<stop offset="0.93" stop-color="#4C0803"/>
<stop offset="1" stop-color="#430600"/>
</linearGradient>
<linearGradient id="paint11_linear_126_2" x1="-0.447134" y1="15.5339" x2="18.3472" y2="10.7982" gradientUnits="userSpaceOnUse">
<stop offset="0.02" stop-color="#E14A48" stop-opacity="0.3"/>
<stop offset="0.11" stop-color="#E04543" stop-opacity="0.34"/>
<stop offset="0.25" stop-color="#DD3836" stop-opacity="0.46"/>
<stop offset="0.29" stop-color="#DD3432" stop-opacity="0.5"/>
<stop offset="1" stop-color="#C62D2E" stop-opacity="0"/>
</linearGradient>
<radialGradient id="paint12_radial_126_2" cx="0" cy="0" r="1" gradientUnits="userSpaceOnUse" gradientTransform="translate(19.3561 18.8028) scale(0.0647592 0.0649379)">
<stop offset="0.15" stop-color="#DD3432"/>
<stop offset="0.29" stop-color="#CE2F2F"/>
<stop offset="0.42" stop-color="#C62D2E"/>
<stop offset="0.62" stop-color="#A12126"/>
<stop offset="0.8" stop-color="#881921"/>
<stop offset="0.91" stop-color="#7F1620"/>
<stop offset="0.95" stop-color="#841721"/>
<stop offset="1" stop-color="#971E26"/>
</radialGradient>
<linearGradient id="paint13_linear_126_2" x1="2.4863" y1="25.8663" x2="18.4266" y2="21.8497" gradientUnits="userSpaceOnUse">
<stop stop-color="#E32D2B"/>
<stop offset="0.09" stop-color="#E02E2C"/>
<stop offset="0.42" stop-color="#DD302E"/>
<stop offset="0.81" stop-color="#DE3D3B"/>
<stop offset="1" stop-color="#E3322F"/>
</linearGradient>
<linearGradient id="paint14_linear_126_2" x1="0.0137213" y1="28.7297" x2="3.10381" y2="27.9511" gradientUnits="userSpaceOnUse">
<stop stop-color="#911C24"/>
<stop offset="0.19" stop-color="#82181D"/>
<stop offset="0.79" stop-color="#5B0D0B"/>
</linearGradient>
<linearGradient id="paint15_linear_126_2" x1="2.52851" y1="25.6679" x2="18.3822" y2="21.6733" gradientUnits="userSpaceOnUse">
<stop offset="0.17" stop-color="#E35655"/>
<stop offset="0.73" stop-color="#DD3432"/>
</linearGradient>
<linearGradient id="paint16_linear_126_2" x1="2.48638" y1="25.8662" x2="18.428" y2="21.8494" gradientUnits="userSpaceOnUse">
<stop stop-color="#E22D2B"/>
<stop offset="0.14" stop-color="#D52D2B"/>
<stop offset="0.28" stop-color="#C62E2C"/>
<stop offset="0.46" stop-color="#B02527"/>
<stop offset="0.6" stop-color="#A72126"/>
<stop offset="0.68" stop-color="#8A191B"/>
<stop offset="0.8" stop-color="#670F0E"/>
<stop offset="0.87" stop-color="#5A0C09"/>
<stop offset="0.93" stop-color="#4C0803"/>
<stop offset="1" stop-color="#430600"/>
</linearGradient>
<linearGradient id="paint17_linear_126_2" x1="-0.447593" y1="24.264" x2="18.3467" y2="19.5283" gradientUnits="userSpaceOnUse">
<stop offset="0.02" stop-color="#E14A48" stop-opacity="0.3"/>
<stop offset="0.11" stop-color="#E04543" stop-opacity="0.34"/>
<stop offset="0.25" stop-color="#DD3836" stop-opacity="0.46"/>
<stop offset="0.29" stop-color="#DD3432" stop-opacity="0.5"/>
<stop offset="1" stop-color="#C62D2E" stop-opacity="0"/>
</linearGradient>
</defs>
</svg>
