<svg width="22" height="29" viewBox="0 0 22 29" fill="none" xmlns="http://www.w3.org/2000/svg">
<path d="M11 0C4.9342 0 0 4.86543 0 10.8467C0 12.7951 0.930548 15.2533 2.8376 18.3629C4.42298 20.9457 6.38747 23.5115 8.11645 25.7715C8.91488 26.8137 9.66736 27.7992 10.2475 28.6148C10.4198 28.8584 10.7013 29 11 29C11.2987 29 11.5802 28.8584 11.7525 28.6148C12.3326 27.7992 13.0851 26.8137 13.8836 25.7715C15.6125 23.5115 17.5713 20.9457 19.1624 18.3629C21.0695 15.2533 22 12.7951 22 10.8467C22 4.86543 17.0658 0 11 0ZM11 15.8594C8.19687 15.8594 5.91645 13.6107 5.91645 10.8467C5.91645 8.08262 8.19687 5.83398 11 5.83398C13.8031 5.83398 16.0836 8.08262 16.0836 10.8467C16.0836 13.6107 13.8031 15.8594 11 15.8594Z" fill="white"/>
</svg>
